<svg width="48" height="48" viewBox="0 0 48 48" fill="none" xmlns="http://www.w3.org/2000/svg">
<path fill-rule="evenodd" clip-rule="evenodd" d="M31.3784 18.9416L35.5935 17.0662C35.8523 16.951 36.1478 16.951 36.4065 17.0662L40.6216 18.9416C41.4586 19.3141 42.3142 18.4585 41.9418 17.6215L39.8854 12.9999L41.9418 8.37832C42.3142 7.5413 41.4586 6.68573 40.6216 7.05816L36 9.1145L31.3784 7.05816C30.5414 6.68573 29.6859 7.5413 30.0583 8.37832L32.1146 12.9999L30.0583 17.6215C29.6859 18.4585 30.5414 19.3141 31.3784 18.9416ZM23 6.9999C13.0589 6.9999 5 15.0588 5 24.9999C5 34.941 13.0589 42.9999 23 42.9999C32.9411 42.9999 41 34.941 41 24.9999H37C37 32.7319 30.732 38.9999 23 38.9999C15.268 38.9999 9 32.7319 9 24.9999C9 17.2679 15.268 10.9999 23 10.9999V6.9999Z" fill="black"/>
</svg>
