<svg width="48" height="48" viewBox="0 0 48 48" fill="none" xmlns="http://www.w3.org/2000/svg">
<path fill-rule="evenodd" clip-rule="evenodd" d="M24 8C15.1634 8 8 15.1634 8 24C8 32.8366 15.1634 40 24 40C24.9144 40 25.8094 39.9235 26.6793 39.777L27.3437 43.7214C26.2552 43.9048 25.1379 44 24 44C12.9543 44 4 35.0457 4 24C4 12.9543 12.9543 4 24 4C35.0457 4 44 12.9543 44 24C44 24.7946 43.9536 25.5791 43.8631 26.351L39.8903 25.8853C39.9627 25.2677 40 24.6386 40 24C40 15.1634 32.8366 8 24 8ZM32 15H28V22H32V15ZM15.4373 27.8004C17.3722 30.4083 20.5262 32.087 24.0617 32.087C27.5057 32.087 30.5876 30.494 32.5331 28.0013L29.3799 25.5402C28.1823 27.0747 26.2574 28.087 24.0617 28.087C21.8075 28.087 19.839 27.02 18.6497 25.417L15.4373 27.8004ZM20 15H16V22H20V15ZM36 30H40V36H45V40H40V45H36V40H30V36H36V30Z" fill="black"/>
</svg>
