<svg width="48" height="48" viewBox="0 0 48 48" fill="none" xmlns="http://www.w3.org/2000/svg">
<path fill-rule="evenodd" clip-rule="evenodd" d="M34.4344 37.1298C31.6329 39.5419 27.9868 41 24 41C19.9995 41 16.3419 39.5318 13.5367 37.1048C16.5469 35.0564 20.1262 33.8732 23.9672 33.8732C27.8237 33.8732 31.4165 35.066 34.4344 37.1298ZM37.1352 34.1385C33.3968 31.4523 28.859 29.8732 23.9672 29.8732C19.0946 29.8732 14.5731 31.44 10.843 34.1072C9.05044 31.5223 8 28.3838 8 25C8 16.1634 15.1634 9 24 9C32.8366 9 40 16.1634 40 25C40 28.3975 38.941 31.5477 37.1352 34.1385ZM44 25C44 36.0457 35.0457 45 24 45C12.9543 45 4 36.0457 4 25C4 13.9543 12.9543 5 24 5C35.0457 5 44 13.9543 44 25ZM24 24.5C26.3472 24.5 28.25 22.5972 28.25 20.25C28.25 17.9028 26.3472 16 24 16C21.6528 16 19.75 17.9028 19.75 20.25C19.75 22.5972 21.6528 24.5 24 24.5ZM24 28.5C28.5563 28.5 32.25 24.8063 32.25 20.25C32.25 15.6937 28.5563 12 24 12C19.4437 12 15.75 15.6937 15.75 20.25C15.75 24.8063 19.4437 28.5 24 28.5Z" fill="black"/>
</svg>
