<svg width="48" height="48" viewBox="0 0 48 48" fill="none" xmlns="http://www.w3.org/2000/svg">
<path fill-rule="evenodd" clip-rule="evenodd" d="M13.6311 16H15.8086L16.9906 14.1712L19.0401 11H29.4103L31.147 14.0027L32.3022 16H34.6095H41V38H7V16H13.6311ZM17.407 7C17.0676 7 16.7514 7.17215 16.5672 7.4572L13.6311 12H7C4.79086 12 3 13.7909 3 16V38C3 40.2091 4.79086 42 7 42H41C43.2091 42 45 40.2091 45 38V16C45 13.7909 43.2091 12 41 12H34.6095L32.0064 7.49933C31.8277 7.19031 31.4977 7 31.1407 7H17.407ZM21.5 26H18.5223C18.6409 27.3192 19.2241 28.5023 20.1109 29.3891C21.1084 30.3866 22.4807 31 24 31C24.8222 31 25.5971 30.8209 26.2925 30.5015C26.604 30.3584 26.9003 30.1867 27.178 29.9897L29.4927 33.2519C29.014 33.5916 28.5019 33.8883 27.9622 34.1363C26.7537 34.6915 25.4102 35 24 35C21.3772 35 18.9995 33.9345 17.2825 32.2175C15.6753 30.6103 14.6389 28.4242 14.513 26H11.5L16.5 20L21.5 26ZM24 16C22.5898 16 21.2463 16.3085 20.0378 16.8637C19.4981 17.1117 18.986 17.4084 18.5073 17.7481L20.822 21.0103C21.0997 20.8133 21.396 20.6416 21.7075 20.4985C22.4029 20.1791 23.1778 20 24 20C25.5193 20 26.8916 20.6134 27.8891 21.6109C28.7759 22.4977 29.3591 23.6808 29.4777 25H26.5L31.5 31L36.5 25H33.487C33.3611 22.5758 32.3247 20.3897 30.7175 18.7825C29.0005 17.0655 26.6228 16 24 16Z" fill="black"/>
</svg>
