<svg width="48" height="48" viewBox="0 0 48 48" fill="none" xmlns="http://www.w3.org/2000/svg">
<path fill-rule="evenodd" clip-rule="evenodd" d="M5.29775 11.6309C5.29775 7.41597 8.61259 3.99997 12.7027 3.99997C15.1466 3.99997 17.3143 5.22012 18.663 7.10175C20.3747 6.64687 22.1651 6.40241 24 6.40241C25.835 6.40241 27.6254 6.6469 29.3372 7.10182C30.6858 5.22016 32.8535 3.99997 35.2975 3.99997C39.3867 3.99997 42.7024 7.41597 42.7024 11.6309C42.7024 13.1371 42.279 14.5412 41.5482 15.7238C43.6595 18.8165 44.8986 22.4478 44.8986 26.2498C44.8986 36.4961 35.7226 43.8568 24 43.8568C12.2769 43.8568 3.1015 36.4963 3.1015 26.2498C3.1015 22.4478 4.34047 18.8164 6.45174 15.7237C5.72104 14.5411 5.29775 13.1371 5.29775 11.6309ZM24.0001 10.3957C33.1593 10.3957 40.9321 17.9537 40.9321 26.3189C40.9321 34.1742 33.6963 40.0266 24.0001 40.0266C14.3034 40.0266 7.06818 34.1744 7.06818 26.3189C7.06818 17.9534 14.8404 10.3957 24.0001 10.3957ZM16 20C18.7614 20 21 22.2386 21 25C21 27.7614 18.7614 30 16 30C13.2385 30 11 27.7614 11 25C11 22.2386 13.2385 20 16 20ZM16 22C14.3431 22 13 23.3432 13 25C13 26.6569 14.3431 28 16 28V22ZM32 20C34.7614 20 37 22.2386 37 25C37 27.7614 34.7614 30 32 30C29.2385 30 27 27.7614 27 25C27 22.2386 29.2385 20 32 20ZM32 28V22C30.3431 22 29 23.3432 29 25C29 26.6569 30.3431 28 32 28Z" fill="black"/>
</svg>
