<svg width="48" height="48" viewBox="0 0 48 48" fill="none" xmlns="http://www.w3.org/2000/svg">
<path fill-rule="evenodd" clip-rule="evenodd" d="M18.5565 10.6772C18.4615 10.8188 18.3693 10.962 18.2798 11.1067C18.4248 11.1978 18.5563 11.319 18.6653 11.4688C18.6653 11.4688 19.5146 12.3806 20.5122 14.8411C20.5561 14.723 20.6023 14.6057 20.6506 14.4893C20.9078 13.8695 21.2259 13.2753 21.6021 12.7143C21.9747 12.1586 22.4033 11.6369 22.8852 11.155C26.9032 7.13698 33.408 7.12728 37.4141 11.1333C41.4201 15.1394 41.4104 21.6442 37.3924 25.6622C36.423 26.6316 35.2938 27.384 34.0581 27.8968C33.9416 27.9451 33.8244 27.9913 33.7063 28.0352C36.1668 29.0328 37.0786 29.8821 37.0786 29.8821C37.2284 29.9911 37.3496 30.1226 37.4407 30.2676C38.3551 29.702 39.2078 29.0279 39.983 28.2528C45.436 22.7998 45.4491 13.9718 40.0124 8.53503C34.5756 3.09825 25.7476 3.1114 20.2946 8.56442C19.6432 9.21583 19.0623 9.92294 18.5565 10.6772ZM20.8773 38.2321C21.3467 39.5739 22.0787 41.0683 22.6341 42.1275C23.0491 42.9187 24.022 43.1877 24.776 42.7085C25.991 41.9364 27.9302 40.6116 30.257 38.6906C32.3951 36.9255 33.9638 35.2957 34.9018 34.2414C35.4929 33.5771 35.3738 32.5857 34.6258 32.1051C33.6119 31.4537 32.0694 30.59 30.2329 29.978C29.642 29.7811 29.0409 29.5884 28.4519 29.4046C27.1671 29.0037 25.9396 28.6453 25.0003 28.3782C25.0194 28.3225 25.0354 28.2661 25.0484 28.209C25.1705 27.6727 25.0228 27.0873 24.6051 26.6696L21.7647 23.8292C21.3276 23.3922 20.7069 23.2506 20.1509 23.4046L20.1508 23.4047C19.7651 22.0452 19.2076 20.1524 18.608 18.3531C17.9961 16.5167 17.1323 14.9742 16.481 13.9603C16.0003 13.2122 15.009 13.0932 14.3447 13.6842C13.2904 14.6222 11.6606 16.191 9.89542 18.329C7.97449 20.6558 6.64964 22.595 5.87754 23.81C5.39832 24.5641 5.66735 25.5369 6.45859 25.9519C7.46701 26.4808 8.86999 27.1697 10.1602 27.6395L4.19357 34.7212L4.10161 34.84C3.58268 35.5718 3.65372 36.6246 4.29557 37.2664L11.1832 44.154L11.2932 44.2551C11.9751 44.8306 13.032 44.8428 13.7284 44.256L20.8773 38.2321ZM18.7412 34.8013L12.6337 39.9477L8.5018 35.8158L13.5948 29.771C14.5406 30.2752 15.6094 30.9642 16.5832 31.8615C17.5092 32.7148 18.2227 33.7907 18.7412 34.8013ZM30.1312 15.1546C29.2714 16.0143 27.8776 16.0143 27.0178 15.1546C26.1581 14.2948 26.1581 12.901 27.0178 12.0412C27.8776 11.1815 29.2714 11.1815 30.1312 12.0412C30.9909 12.901 30.9909 14.2948 30.1312 15.1546ZM20.6136 29.7997L18.5826 27.7686L18.5368 27.5875L20.0206 27.1763L21.2017 28.3574L20.7016 29.8155L20.6136 29.7997ZM16.6875 24.3873L17.1443 25.997L16.2844 25.732C15.244 25.4114 13.7698 24.9663 12.0306 24.4673C11.5058 24.3167 10.8798 24.0716 10.236 23.787C10.8852 22.8763 11.695 21.8039 12.6716 20.621C13.3985 19.7404 14.0994 18.9663 14.7366 18.3043C14.9002 18.6809 15.055 19.0782 15.1927 19.4912C15.7679 21.2175 16.3088 23.0523 16.6875 24.3873ZM24.0156 31.8409L22.5861 31.4344L22.814 32.1719C23.1371 33.2177 23.5986 34.7427 24.1187 36.5554C24.2693 37.0802 24.5144 37.7062 24.799 38.3501C25.7097 37.7008 26.7822 36.891 27.9651 35.9145C28.8456 35.1875 29.6198 34.4867 30.2818 33.8494C29.9051 33.6858 29.5079 33.531 29.0948 33.3934C27.2877 32.7912 25.3625 32.2239 24.0156 31.8409Z" fill="black"/>
</svg>
