<svg width="48" height="48" viewBox="0 0 48 48" fill="none" xmlns="http://www.w3.org/2000/svg">
<path fill-rule="evenodd" clip-rule="evenodd" d="M18 17C18 13.6863 20.6863 11 24 11C27.3137 11 30 13.6863 30 17C30 20.3137 27.3137 23 24 23C20.6863 23 18 20.3137 18 17ZM24 7C18.4771 7 14 11.4772 14 17C14 22.5228 18.4771 27 24 27C29.5228 27 34 22.5228 34 17C34 11.4772 29.5228 7 24 7ZM22.2857 30.5714L22.2606 30.5714H21.8571V30.5753C15.2633 30.6955 9.35449 33.5837 5.35866 38.1039L8.35556 40.7532C11.6849 36.987 16.6688 34.578 22.2628 34.5714H25.7143V30.5714L22.2857 30.5714ZM34 36.2857V31.4286H37.1428V36.2857H34ZM30 28.2857C30 27.8123 30.3837 27.4286 30.8571 27.4286H40.2857C40.7591 27.4286 41.1428 27.8123 41.1428 28.2857V39.4286C41.1428 39.9019 40.7591 40.2857 40.2857 40.2857H30.8571C30.3837 40.2857 30 39.9019 30 39.4286V28.2857Z" fill="black"/>
</svg>
