<svg width="48" height="48" viewBox="0 0 48 48" fill="none" xmlns="http://www.w3.org/2000/svg">
<path fill-rule="evenodd" clip-rule="evenodd" d="M12.4592 10.1756C12.4665 10.1749 12.4739 10.1749 12.4812 10.1756L12.5788 10.1852H35.5534L35.6509 10.1756C35.6676 10.174 35.6834 10.1762 35.6964 10.1807C35.7074 10.1845 35.7191 10.1908 35.7326 10.2044L42.3037 16.7754L37.0028 22.0763L34.3324 19.4059V36.9844H13.693V19.5126L11.1293 22.0763L5.82842 16.7754L12.3995 10.2044C12.4086 10.1953 12.4162 10.1901 12.4224 10.1867C12.4289 10.183 12.4363 10.1801 12.4449 10.178L12.4519 10.1763L12.4592 10.1756ZM38.3324 40.9844V26.4036L47.9606 16.7754L38.5611 7.37594C37.6864 6.50129 36.5126 6.10527 35.3736 6.18521H12.7587C12.5665 6.17169 12.3736 6.1717 12.1814 6.18523C11.8963 6.18656 11.6195 6.23635 11.3609 6.32762C10.7042 6.51187 10.0842 6.8628 9.57107 7.37594L0.17157 16.7754L9.69302 26.2969V40.9844H38.3324ZM23 34V30H31V34H23Z" fill="black"/>
</svg>
