<svg width="48" height="48" viewBox="0 0 48 48" fill="none" xmlns="http://www.w3.org/2000/svg">
<path fill-rule="evenodd" clip-rule="evenodd" d="M8 12H40.25V37.25H8V12ZM4 12C4 9.79086 5.79086 8 8 8H40.25C42.4591 8 44.25 9.79086 44.25 12V37.25C44.25 39.4591 42.4591 41.25 40.25 41.25H8C5.79086 41.25 4 39.4591 4 37.25V12ZM10.6311 29.75H13.1359V19.6719H11.6564C11.3146 20.1016 10.968 20.4385 10.6164 20.6826C10.2063 20.9658 9.72285 21.166 9.16621 21.2832V22.4551H9.53242C9.96211 22.4551 10.2502 22.5332 10.3967 22.6895C10.5529 22.8359 10.6311 23.0898 10.6311 23.4512V29.75ZM20.4302 27.582C20.4399 27.4648 20.4448 27.0889 20.4448 26.4541V23.0703C20.4448 22.4062 20.4253 21.9082 20.3862 21.5762C20.3472 21.2344 20.23 20.9121 20.0347 20.6094C19.8296 20.2578 19.522 19.9844 19.1118 19.7891C18.7114 19.584 18.2476 19.4814 17.7202 19.4814C17.2612 19.4814 16.8462 19.5645 16.4751 19.7305C16.104 19.8965 15.8159 20.126 15.6108 20.4189C15.4058 20.7119 15.269 21.0635 15.2007 21.4736C15.1421 21.874 15.1128 22.4062 15.1128 23.0703V26.6006C15.1128 27.2256 15.1421 27.709 15.2007 28.0508C15.2593 28.3828 15.4155 28.7148 15.6694 29.0469C15.9233 29.3789 16.2212 29.6133 16.563 29.75C16.9048 29.877 17.3442 29.9404 17.8813 29.9404C18.7798 29.9404 19.4536 29.6426 19.9028 29.0469C20.2056 28.6465 20.3813 28.1582 20.4302 27.582ZM18.189 22.2354V27.2305C18.189 27.6992 18.1645 28.0117 18.1157 28.168C18.0767 28.3145 17.9643 28.3877 17.7788 28.3877C17.5347 28.3877 17.3979 28.2217 17.3686 27.8896V27.1572V21.8545C17.3686 21.5908 17.3979 21.3906 17.4565 21.2539C17.5249 21.1074 17.6372 21.0342 17.7935 21.0342C17.9692 21.0342 18.0767 21.1074 18.1157 21.2539C18.1645 21.4004 18.189 21.6396 18.189 21.9717V22.2354ZM26.3767 27.0107V26.8203C26.3767 25.9316 26.3133 25.3018 26.1863 24.9307C26.0594 24.5596 25.7713 24.2617 25.3221 24.0371C25.7029 23.8125 25.9471 23.6123 26.0545 23.4365C26.2205 23.1729 26.3035 22.7432 26.3035 22.1475C26.3035 21.21 26.0887 20.5312 25.659 20.1113C25.2293 19.6914 24.5603 19.4814 23.6521 19.4814C21.9334 19.4814 21.074 20.3457 21.074 22.0742C21.074 22.6602 21.1473 23.1045 21.2937 23.4072C21.4109 23.6514 21.6111 23.8613 21.8943 24.0371C21.5232 24.291 21.2791 24.5791 21.1619 24.9014C21.0447 25.2139 20.9861 25.8145 20.9861 26.7031C20.9861 26.9668 20.9959 27.2109 21.0154 27.4355C21.035 27.6602 21.0594 27.8652 21.0887 28.0508C21.284 29.3105 22.1482 29.9404 23.6814 29.9404C25.2146 29.9404 26.0887 29.3252 26.3035 28.0947C26.3328 27.958 26.3523 27.7969 26.3621 27.6113C26.3719 27.4258 26.3767 27.2256 26.3767 27.0107ZM24.0769 21.8691V22.8799C24.0769 23.251 23.95 23.4365 23.6961 23.4365C23.5691 23.4365 23.4715 23.3877 23.4031 23.29C23.3348 23.1924 23.3006 23.0752 23.3006 22.9385V21.8691C23.3006 21.6152 23.3201 21.415 23.3592 21.2686C23.3982 21.1123 23.5008 21.0342 23.6668 21.0342C23.8621 21.0342 23.9891 21.1318 24.0476 21.3271C24.0672 21.3955 24.0769 21.5762 24.0769 21.8691ZM24.1209 26.0586V27.333C24.1209 27.7334 24.0965 28.0117 24.0476 28.168C23.9988 28.3145 23.8865 28.3877 23.7107 28.3877C23.5154 28.3877 23.3885 28.3047 23.3299 28.1387C23.281 27.9727 23.2566 27.7139 23.2566 27.3623V26.0586C23.2566 25.7168 23.281 25.4727 23.3299 25.3262C23.3787 25.1797 23.491 25.1064 23.6668 25.1064C23.8523 25.1064 23.9744 25.1846 24.033 25.3408C24.0916 25.4971 24.1209 25.7363 24.1209 26.0586ZM32.2647 27.582C32.2745 27.4648 32.2794 27.0889 32.2794 26.4541V23.0703C32.2794 22.4062 32.2598 21.9082 32.2208 21.5762C32.1817 21.2344 32.0645 20.9121 31.8692 20.6094C31.6641 20.2578 31.3565 19.9844 30.9464 19.7891C30.546 19.584 30.0821 19.4814 29.5548 19.4814C29.0958 19.4814 28.6807 19.5645 28.3097 19.7305C27.9386 19.8965 27.6505 20.126 27.4454 20.4189C27.2403 20.7119 27.1036 21.0635 27.0352 21.4736C26.9766 21.874 26.9473 22.4062 26.9473 23.0703V26.6006C26.9473 27.2256 26.9766 27.709 27.0352 28.0508C27.0938 28.3828 27.2501 28.7148 27.504 29.0469C27.7579 29.3789 28.0557 29.6133 28.3975 29.75C28.7393 29.877 29.1788 29.9404 29.7159 29.9404C30.6143 29.9404 31.2882 29.6426 31.7374 29.0469C32.0401 28.6465 32.2159 28.1582 32.2647 27.582ZM30.0235 22.2354V27.2305C30.0235 27.6992 29.9991 28.0117 29.9503 28.168C29.9112 28.3145 29.7989 28.3877 29.6134 28.3877C29.3692 28.3877 29.2325 28.2217 29.2032 27.8896V27.1572V21.8545C29.2032 21.5908 29.2325 21.3906 29.2911 21.2539C29.3595 21.1074 29.4718 21.0342 29.628 21.0342C29.8038 21.0342 29.9112 21.1074 29.9503 21.2539C29.9991 21.4004 30.0235 21.6396 30.0235 21.9717V22.2354ZM38.2552 25.0625C38.5092 24.7402 38.6361 24.1738 38.6361 23.3633V22.4844C38.6361 21.7031 38.5873 21.1807 38.4896 20.917C38.392 20.6436 38.2162 20.3994 37.9623 20.1846C37.7084 19.9697 37.4154 19.833 37.0834 19.7744C36.7513 19.7061 36.2679 19.6719 35.6332 19.6719H32.9965V29.75H35.6185V25.707H36.3217C37.2787 25.707 37.9232 25.4922 38.2552 25.0625ZM36.4388 22.2354V23.041C36.4388 23.3926 36.3949 23.6367 36.307 23.7734C36.2289 23.9004 36.0629 23.9639 35.809 23.9639H35.6185V21.4004C35.9603 21.4004 36.1801 21.4541 36.2777 21.5615C36.3851 21.6592 36.4388 21.8838 36.4388 22.2354Z" fill="black"/>
</svg>
