<svg width="48" height="48" viewBox="0 0 48 48" fill="none" xmlns="http://www.w3.org/2000/svg">
<path fill-rule="evenodd" clip-rule="evenodd" d="M23.9788 6.09368L25.1508 4.47301L23.9831 3.62866L22.8125 4.46894L23.9788 6.09368ZM40.0385 20.64C38.2073 16.5218 34.4055 12.4652 31.2445 9.53823C29.6208 8.03466 28.1049 6.77417 26.9946 5.88914C26.4388 5.44605 25.9828 5.09562 25.6635 4.85434C25.5038 4.73366 25.3782 4.64018 25.2912 4.57596C25.2478 4.54385 25.2139 4.51905 25.1903 4.5018L25.1627 4.48164L25.1547 4.47587L25.1522 4.47408L25.1514 4.47345C25.1511 4.47322 25.1508 4.47301 23.9788 6.09368C22.8125 4.46894 22.8122 4.46916 22.8119 4.4694L22.811 4.47005L22.8085 4.47187L22.8004 4.47768L22.7726 4.49784C22.7489 4.51505 22.7149 4.53976 22.6714 4.57173C22.5843 4.63566 22.4586 4.72866 22.299 4.8488C21.9797 5.08901 21.5238 5.43813 20.9678 5.88069C19.8573 6.76469 18.3402 8.02731 16.7114 9.54448C13.5094 12.527 9.65821 16.6899 7.78532 21.0137L7.79363 21.0173C6.9411 23.0808 6.47156 25.341 6.47156 27.7062C6.47156 37.387 14.3193 45.2347 24 45.2347C33.6807 45.2347 41.5285 37.387 41.5285 27.7062C41.5285 25.1951 40.9992 22.8023 40.0442 20.6375L40.0385 20.64ZM36.4214 22.3365L36.416 22.3388C34.9554 18.9967 31.6573 15.372 28.5268 12.4732C26.9925 11.0524 25.5549 9.85686 24.5013 9.01697C24.3133 8.86712 24.1378 8.72877 23.9764 8.60268C23.8171 8.72676 23.6442 8.86283 23.459 9.0102C22.4086 9.84643 20.9735 11.041 19.4377 12.4715C16.4188 15.2834 13.2128 18.8239 11.6208 22.2368L11.622 22.2374C10.883 23.9071 10.4716 25.7559 10.4716 27.7062C10.4716 35.1778 16.5285 41.2347 24 41.2347C31.4716 41.2347 37.5285 35.1778 37.5285 27.7062C37.5285 25.7944 37.1331 23.9801 36.4214 22.3365ZM26.3549 28.3549L24 34.4852L21.6451 28.3549L15.5147 26L21.6451 23.645L24 17.5147L26.3549 23.645L32.4853 26L26.3549 28.3549Z" fill="black"/>
</svg>
