<svg width="48" height="48" viewBox="0 0 48 48" fill="none" xmlns="http://www.w3.org/2000/svg">
<path fill-rule="evenodd" clip-rule="evenodd" d="M35 1H13C6.37258 1 1 6.37258 1 13V35C1 41.6274 6.37258 47 13 47H35C41.6274 47 47 41.6274 47 35V13C47 6.37258 41.6274 1 35 1ZM5 13C5 8.58172 8.58172 5 13 5H35C39.4183 5 43 8.58172 43 13V35C43 39.4183 39.4183 43 35 43H13C8.58172 43 5 39.4183 5 35V13ZM15 9C11.6863 9 9 11.6863 9 15V33.0001C9 35.6005 10.6542 37.8145 12.9677 38.6472L17.0602 23.4274H19.1774L22.3204 13.9328C22.6275 13.0052 23.6284 12.5021 24.556 12.8092C25.0871 12.985 25.5038 13.4017 25.6796 13.9328L28.8226 23.4274H31.0936L35.0497 38.6409C37.3541 37.8034 39 35.594 39 33.0001V15C39 11.6863 36.3137 9 33 9H15ZM31.1248 39.0001H16.8998L20.0415 27.3158H28.0857L31.1248 39.0001Z" fill="black"/>
</svg>
