<svg width="48" height="48" viewBox="0 0 48 48" fill="none" xmlns="http://www.w3.org/2000/svg">
<path fill-rule="evenodd" clip-rule="evenodd" d="M20.3344 30.8021L24.6 37.8318L28.8657 30.8021L37.0509 30.7856L32.9734 24.0003L37.0509 17.215L28.8657 17.1985L24.6 10.1688L20.3343 17.1985L12.1492 17.215L16.2266 24.0003L12.1492 30.7856L20.3344 30.8021ZM11.56 24.0003L6.61331 32.232C5.94121 33.3505 6.74507 34.7747 8.04992 34.7773L18.08 34.7976L23.1638 43.1755C23.8179 44.2535 25.3822 44.2535 26.0363 43.1755L31.12 34.7976L41.1501 34.7773C42.4549 34.7747 43.2588 33.3505 42.5867 32.232L37.6401 24.0003L42.5867 15.7686C43.2588 14.6501 42.4549 13.2259 41.1501 13.2233L31.12 13.2031L26.0363 4.82508C25.3822 3.74711 23.8179 3.74711 23.1637 4.82508L18.08 13.2031L8.04993 13.2233C6.74507 13.2259 5.94121 14.6501 6.61331 15.7686L11.56 24.0003Z" fill="black"/>
</svg>
