<svg width="48" height="48" viewBox="0 0 48 48" fill="none" xmlns="http://www.w3.org/2000/svg">
<path fill-rule="evenodd" clip-rule="evenodd" d="M32.0144 9.09121C34.4997 10.5261 35.3869 13.7584 33.898 16.3371C33.4999 17.0267 32.9769 17.5924 32.3752 18.024L24.0979 13.2452C24.1709 12.5082 24.3993 11.7725 24.7974 11.0829C26.2863 8.50415 29.5291 7.65631 32.0144 9.09121ZM37.3621 18.3371C36.1669 20.4074 34.3049 21.8503 32.2102 22.5476L20.263 15.6498C19.8195 13.4871 20.1381 11.1531 21.3333 9.0829C23.9107 4.61883 29.5882 3.07162 34.0144 5.62711C38.4406 8.1826 39.9395 13.8731 37.3621 18.3371ZM22.2747 18.6074L18.7802 16.5898L17.2402 20.3195L10.8696 35.7484C9.91283 38.0657 10.8433 40.7467 13.0144 42.0002C15.1856 43.2537 17.9726 42.719 19.501 40.7317L29.6775 27.5002L32.1375 24.3017L28.643 22.2841L22.2747 18.6074ZM20.7347 22.3371L14.5669 37.275C14.3856 37.7139 14.5571 38.2721 15.0144 38.5361C15.4717 38.8001 16.0408 38.6696 16.3304 38.2931L26.183 25.4827L20.7347 22.3371ZM21.3916 24.6431L23.8575 26.0668L21.366 30.3822L18.9 28.9585L21.3916 24.6431Z" fill="black"/>
</svg>
