<svg width="48" height="48" viewBox="0 0 48 48" fill="none" xmlns="http://www.w3.org/2000/svg">
<path fill-rule="evenodd" clip-rule="evenodd" d="M27.412 33.8262L23.4975 35.5137L20.7128 38.3079C20.0915 38.9314 19.0821 38.9322 18.4597 38.3098L10.2112 30.0614C9.58458 29.4347 9.59032 28.417 10.224 27.7975L13.0339 25.0502L14.6772 21.1051L30.7522 5.03006C31.5333 4.24901 32.7996 4.24901 33.5806 5.03006L43.4801 14.9296C44.2612 15.7106 44.2612 16.9769 43.4801 17.758L27.412 33.8262ZM16.7264 26.5883L18.0654 23.3738L32.1664 9.2727L39.2375 16.3438L25.1251 30.4562L21.9139 31.8405L21.2073 32.1452L20.6642 32.6901L19.5824 33.7757L14.7618 28.9551L15.8303 27.9104L16.4131 27.3406L16.7264 26.5883ZM8.67538 40.5124L4.40881 39.1226L6.64519 36.8855L7.5812 35.9491L9.47313 34.0566L11.6252 36.2086L12.3016 36.885L14.4536 39.0371L11.921 41.5697L11.0435 41.2838L8.67538 40.5124Z" fill="black"/>
</svg>
