<svg width="48" height="48" viewBox="0 0 48 48" fill="none" xmlns="http://www.w3.org/2000/svg">
<path fill-rule="evenodd" clip-rule="evenodd" d="M25.9426 3.36055C24.7345 2.68939 23.2655 2.68939 22.0574 3.36055L6.62884 11.932C5.35898 12.6375 4.57141 13.9759 4.57141 15.4286V32.5715C4.57141 34.0241 5.35898 35.3626 6.62884 36.0681L22.0574 44.6395C23.2655 45.3107 24.7345 45.3107 25.9426 44.6395L41.3711 36.0681C42.641 35.3626 43.4286 34.0241 43.4286 32.5715V15.4286C43.4286 13.9759 42.641 12.6375 41.3711 11.932L25.9426 3.36055ZM24 6.85718L39.4286 15.4286V32.5715L24 41.1429L8.57141 32.5715V15.4286L24 6.85718ZM26.3749 18.597C26.3749 19.9898 25.2669 21.0572 23.9759 21.0572C22.6849 21.0572 21.5769 19.9898 21.5769 18.597C21.5769 17.2042 22.6849 16.1369 23.9759 16.1369C25.2669 16.1369 26.3749 17.2042 26.3749 18.597ZM29.8749 18.597C29.8749 21.8887 27.2338 24.5572 23.9759 24.5572C20.7179 24.5572 18.0769 21.8887 18.0769 18.597C18.0769 15.3053 20.7179 12.6369 23.9759 12.6369C27.2338 12.6369 29.8749 15.3053 29.8749 18.597ZM15.7338 29.9564C17.8109 28.1734 20.3822 27.0846 23.1964 27.0846H24.9464V27.1146H27.286V24.6858H30.7145V27.1146H33.1434V30.5432H30.7145V32.972H27.286V30.5432H24.9464V30.5846H23.1964C21.3207 30.5846 19.538 31.3035 18.0135 32.6121L16.6856 33.752L14.4059 31.0962L15.7338 29.9564Z" fill="black"/>
</svg>
