<svg width="48" height="48" viewBox="0 0 48 48" fill="none" xmlns="http://www.w3.org/2000/svg">
<path fill-rule="evenodd" clip-rule="evenodd" d="M7.11091 3.78247L4.28249 6.6109L39.6378 41.9662L42.4663 39.1378L41.1582 37.8298C42.8026 37.3331 44 35.8064 44 34V11C44 8.79086 42.2091 7 40 7H10.3284L7.11091 3.78247ZM14.3284 11L37.3284 34H40V11H14.3284ZM4 30V11.8284L8 15.8284V30V34V38.6909L14.3438 34.6309L15.3296 34H16.5H26.1716L30.1716 38H16.5L7.07811 44.03C5.74689 44.882 4 43.926 4 42.3455V34V30Z" fill="black"/>
</svg>
