<svg width="48" height="48" viewBox="0 0 48 48" fill="none" xmlns="http://www.w3.org/2000/svg">
<path fill-rule="evenodd" clip-rule="evenodd" d="M10.5119 10.5661C10.0264 11.2593 10.1716 12.3043 10.9862 12.8747L11.7465 13.4071L11.8487 13.4786C12.6052 12.6431 13.4369 11.903 14.3271 11.261L14.174 11.1538L12.8435 10.2222C12.0289 9.65183 10.9973 9.8728 10.5119 10.5661ZM15.1614 15.7982L16.1183 16.4682L24.862 22.5906L25.4322 22.9899L34.1759 29.1123L35.703 30.1816C38.2066 24.8924 36.5681 18.2308 31.3319 14.5643C26.0957 10.8979 19.2754 11.6366 15.1614 15.7982ZM39.0158 32.5012C42.8051 25.3262 40.6156 16.1818 33.6262 11.2877C28.9505 8.01381 23.2222 7.40892 18.3115 9.16783L16.4683 7.87724L15.1378 6.94558C12.593 5.16373 9.0427 5.69046 7.23525 8.27176C5.42781 10.8531 6.14713 14.3694 8.69188 16.1513L9.4522 16.6837L9.55437 16.7552C5.76508 23.9302 7.95456 33.0747 14.944 37.9687C19.6196 41.2426 25.348 41.8475 30.2587 40.0886L31.5316 40.9799L32.8621 41.9116C35.4069 43.6934 38.9572 43.1667 40.7646 40.5854C42.5721 38.0041 41.8528 34.4877 39.308 32.7058L39.0158 32.5012ZM33.4087 33.4582L31.8816 32.3889L23.1379 26.2665L22.5677 25.8672L13.824 19.7449L12.8671 19.0748C10.3636 24.3641 12.0021 31.0257 17.2383 34.6921C22.4745 38.3585 29.2947 37.6198 33.4087 33.4582ZM36.7215 35.7778L37.0137 35.9825C37.8283 36.5528 37.9735 37.5978 37.488 38.2911C37.0026 38.9843 35.971 39.2053 35.1564 38.6349L34.2431 37.9954C35.1332 37.3534 35.9649 36.6133 36.7215 35.7778Z" fill="black"/>
</svg>
