<svg width="48" height="48" viewBox="0 0 48 48" fill="none" xmlns="http://www.w3.org/2000/svg">
<path fill-rule="evenodd" clip-rule="evenodd" d="M42 8H7V12H42V8ZM27 21H7V25H27V21ZM7 34H19V38H7V34ZM30.1373 29.1347L25.7707 33.3784L25.7539 33.362L22.9916 36.0557L23.0037 36.0674L23 36.0711L25.7622 38.7648L25.7707 38.7565L30.1289 42.992L32.8911 40.2983L30.5262 38H35.5676C39.1201 38 42 35.0593 42 31.4318V21H38V31.3235C38 32.8017 36.7812 34 35.2778 34H30.665L32.8995 31.8284L30.1373 29.1347Z" fill="black"/>
</svg>
