<svg width="48" height="48" viewBox="0 0 48 48" fill="none" xmlns="http://www.w3.org/2000/svg">
<path fill-rule="evenodd" clip-rule="evenodd" d="M16.5 34H15.3296L14.3438 34.6309L8 38.6909V34V30V11H40V34H16.5ZM8 7C5.79086 7 4 8.79086 4 11V30V34V42.3455C4 43.926 5.74689 44.882 7.07811 44.03L16.5 38H40C42.2091 38 44 36.2091 44 34V11C44 8.79086 42.2091 7 40 7H8ZM18.6667 15.1741L21.2926 13.7143L23.9863 18.2168L26.68 13.7143L29.306 15.1741L27.4418 18.2901H30.8571V21.254H25.5238V23.4769H30.8571V26.4408H25.5238V30.8572H22.4762V26.4408H17.1429V23.4769H22.4762V21.254H17.1429V18.2901H20.5309L18.6667 15.1741Z" fill="black"/>
<path d="M15.3296 34V33.75H15.2564L15.1948 33.7894L15.3296 34ZM14.3438 34.6309L14.4785 34.8415L14.3438 34.6309ZM8 38.6909H7.75V39.1478L8.13476 38.9015L8 38.6909ZM8 11V10.75H7.75V11H8ZM40 11H40.25V10.75H40V11ZM40 34V34.25H40.25V34H40ZM7.07811 44.03L7.21287 44.2406L7.07811 44.03ZM16.5 38V37.75H16.4268L16.3652 37.7894L16.5 38ZM21.2926 13.7143L21.5072 13.5859L21.3828 13.3781L21.1712 13.4958L21.2926 13.7143ZM18.6667 15.1741L18.5452 14.9556L18.3196 15.081L18.4521 15.3025L18.6667 15.1741ZM23.9863 18.2168L23.7718 18.3451L23.9863 18.7037L24.2009 18.3451L23.9863 18.2168ZM26.68 13.7143L26.8015 13.4958L26.5898 13.3781L26.4655 13.5859L26.68 13.7143ZM29.306 15.1741L29.5205 15.3025L29.653 15.081L29.4274 14.9556L29.306 15.1741ZM27.4418 18.2901L27.2272 18.1618L27.0009 18.5401H27.4418V18.2901ZM30.8571 18.2901H31.1071V18.0401H30.8571V18.2901ZM30.8571 21.254V21.504H31.1071V21.254H30.8571ZM25.5238 21.254V21.004H25.2738V21.254H25.5238ZM25.5238 23.4769H25.2738V23.7269H25.5238V23.4769ZM30.8571 23.4769H31.1071V23.2269H30.8571V23.4769ZM30.8571 26.4408V26.6908H31.1071V26.4408H30.8571ZM25.5238 26.4408V26.1908H25.2738V26.4408H25.5238ZM25.5238 30.8572V31.1072H25.7738V30.8572H25.5238ZM22.4762 30.8572H22.2262V31.1072H22.4762V30.8572ZM22.4762 26.4408H22.7262V26.1908H22.4762V26.4408ZM17.1429 26.4408H16.8929V26.6908H17.1429V26.4408ZM17.1429 23.4769V23.2269H16.8929V23.4769H17.1429ZM22.4762 23.4769V23.7269H22.7262V23.4769H22.4762ZM22.4762 21.254H22.7262V21.004H22.4762V21.254ZM17.1429 21.254H16.8929V21.504H17.1429V21.254ZM17.1429 18.2901V18.0401H16.8929V18.2901H17.1429ZM20.5309 18.2901V18.5401H20.9718L20.7454 18.1618L20.5309 18.2901ZM15.3296 34.25H16.5V33.75H15.3296V34.25ZM14.4785 34.8415L15.4644 34.2106L15.1948 33.7894L14.209 34.4203L14.4785 34.8415ZM8.13476 38.9015L14.4785 34.8415L14.209 34.4203L7.86524 38.4804L8.13476 38.9015ZM7.75 34V38.6909H8.25V34H7.75ZM7.75 30V34H8.25V30H7.75ZM7.75 11V30H8.25V11H7.75ZM40 10.75H8V11.25H40V10.75ZM40.25 34V11H39.75V34H40.25ZM16.5 34.25H40V33.75H16.5V34.25ZM4.25 11C4.25 8.92893 5.92893 7.25 8 7.25V6.75C5.65279 6.75 3.75 8.65279 3.75 11H4.25ZM4.25 30V11H3.75V30H4.25ZM4.25 34V30H3.75V34H4.25ZM4.25 42.3455V34H3.75V42.3455H4.25ZM6.94334 43.8194C5.77853 44.5649 4.25 43.7284 4.25 42.3455H3.75C3.75 44.1235 5.71525 45.1991 7.21287 44.2406L6.94334 43.8194ZM16.3652 37.7894L6.94334 43.8194L7.21287 44.2406L16.6348 38.2106L16.3652 37.7894ZM40 37.75H16.5V38.25H40V37.75ZM43.75 34C43.75 36.0711 42.0711 37.75 40 37.75V38.25C42.3472 38.25 44.25 36.3472 44.25 34H43.75ZM43.75 11V34H44.25V11H43.75ZM40 7.25C42.0711 7.25 43.75 8.92893 43.75 11H44.25C44.25 8.65279 42.3472 6.75 40 6.75V7.25ZM8 7.25H40V6.75H8V7.25ZM21.1712 13.4958L18.5452 14.9556L18.7881 15.3926L21.4141 13.9328L21.1712 13.4958ZM24.2009 18.0884L21.5072 13.5859L21.0781 13.8426L23.7718 18.3451L24.2009 18.0884ZM26.4655 13.5859L23.7718 18.0884L24.2009 18.3451L26.8946 13.8426L26.4655 13.5859ZM29.4274 14.9556L26.8015 13.4958L26.5585 13.9328L29.1845 15.3926L29.4274 14.9556ZM27.6563 18.4185L29.5205 15.3025L29.0914 15.0457L27.2272 18.1618L27.6563 18.4185ZM30.8571 18.0401H27.4418V18.5401H30.8571V18.0401ZM31.1071 21.254V18.2901H30.6071V21.254H31.1071ZM25.5238 21.504H30.8571V21.004H25.5238V21.504ZM25.7738 23.4769V21.254H25.2738V23.4769H25.7738ZM30.8571 23.2269H25.5238V23.7269H30.8571V23.2269ZM31.1071 26.4408V23.4769H30.6071V26.4408H31.1071ZM25.5238 26.6908H30.8571V26.1908H25.5238V26.6908ZM25.7738 30.8572V26.4408H25.2738V30.8572H25.7738ZM22.4762 31.1072H25.5238V30.6072H22.4762V31.1072ZM22.2262 26.4408V30.8572H22.7262V26.4408H22.2262ZM17.1429 26.6908H22.4762V26.1908H17.1429V26.6908ZM16.8929 23.4769V26.4408H17.3929V23.4769H16.8929ZM22.4762 23.2269H17.1429V23.7269H22.4762V23.2269ZM22.2262 21.254V23.4769H22.7262V21.254H22.2262ZM17.1429 21.504H22.4762V21.004H17.1429V21.504ZM16.8929 18.2901V21.254H17.3929V18.2901H16.8929ZM20.5309 18.0401H17.1429V18.5401H20.5309V18.0401ZM18.4521 15.3025L20.3163 18.4185L20.7454 18.1618L18.8812 15.0457L18.4521 15.3025Z" fill="black"/>
</svg>
