<svg width="48" height="48" viewBox="0 0 48 48" fill="none" xmlns="http://www.w3.org/2000/svg">
<path fill-rule="evenodd" clip-rule="evenodd" d="M40 20.3789V37.9998H23.8529C23.5595 37.9998 23.2897 37.8391 23.1497 37.5812L20.0835 31.9294L20.0825 23.4213L9.26395 23.4227C8.56613 23.4224 8 22.8566 8 22.1587C8 21.4607 8.56589 20.8948 9.26395 20.8948L33.7867 20.8948L32.1181 12.8167C32.0842 12.6526 32.1025 12.4817 32.1707 12.3287L32.7403 11.0508L40 20.3789ZM9.26395 27.4227C6.35675 27.4227 4 25.0659 4 22.1587C4 19.2515 6.35675 16.8948 9.26395 16.8948L28.876 16.8948L28.2008 13.6258C28.1508 13.3838 28.1197 13.1394 28.1075 12.8948C28.0699 12.1446 28.2087 11.3925 28.5172 10.7003L29.8448 7.72184C30.493 6.26743 32.1976 5.61392 33.652 6.26219C34.0845 6.45495 34.4628 6.75125 34.7536 7.12492L43.2017 17.9801C43.6986 18.5439 44 19.2842 44 20.0948V38.7998C44 40.5671 42.5673 41.9998 40.8 41.9998H23.8529C22.0925 41.9998 20.4733 41.0361 19.6338 39.4887L16.0836 32.9447L16.083 27.4218L9.26395 27.4227Z" fill="black"/>
</svg>
