<svg width="48" height="48" viewBox="0 0 48 48" fill="none" xmlns="http://www.w3.org/2000/svg">
<path fill-rule="evenodd" clip-rule="evenodd" d="M23.9999 3.71429C15.3356 3.71429 10.537 10.8257 10.4126 19.9108L10.4116 20.4586L10.415 20.694L9.30872 23.6373L8.90868 24.7686L8.63654 25.5733L8.39773 26.314L8.19091 26.9968C8.1208 27.2371 8.05427 27.4737 7.99132 27.7066L7.79171 28.4812L7.73637 28.7105L7.60421 29.2961L7.44787 30.08L7.42092 30.2297L7.31381 30.8994L7.25795 31.3171L7.20977 31.7622L7.17466 32.1843C7.17184 32.225 7.1693 32.2645 7.16693 32.3038L7.14937 32.6937L7.14569 32.8376L7.14348 33.1293L7.14544 33.2886L7.15385 33.5492L7.16364 33.728L7.1814 33.9581L7.21995 34.3056L7.24499 34.4783L7.29928 34.7726L7.32828 34.9109C7.36401 35.0674 7.40561 35.2217 7.45406 35.3741L7.51972 35.5641L7.60398 35.7894L7.73113 36.069C8.24571 37.1399 9.0637 38.0211 10.4905 38.3436L10.521 38.349L10.4904 38.4763C10.2462 39.5674 10.3926 40.7156 10.9573 41.7253C11.731 43.1087 12.6887 43.5863 13.9888 43.9146C14.4962 44.0427 15.0531 44.1249 15.696 44.182L16.5427 44.2402L17.0886 44.263L17.6895 44.2783L18.299 44.2851L18.9135 44.2844L19.5288 44.2772L20.4331 44.2559L21.3197 44.2239L22.4179 44.1686L23.1763 44.1192L23.6404 44.0831L24.001 44.049L24.1427 44.064L24.9677 44.1294L25.8898 44.1859L26.5585 44.2187L27.2445 44.2456L28.2956 44.2739L28.9059 44.2829L29.6911 44.2853L30.4722 44.2751L30.9918 44.2603L31.489 44.2385L31.9735 44.2084L32.5899 44.1541L32.7397 44.1376L33.1392 44.0846C33.712 43.9963 34.1534 43.8953 34.5836 43.7418C35.5798 43.3863 36.4107 42.8552 37.0427 41.7253L37.1501 41.5216C37.6252 40.5628 37.7375 39.4947 37.5096 38.4764L37.477 38.345L37.5298 38.3345C38.4761 38.0996 39.2022 37.5683 39.737 36.9046L39.8701 36.7394L40.1231 36.3468L40.2023 36.1974C40.3023 36.0089 40.3867 35.8189 40.4588 35.6261L40.5257 35.4328L40.5662 35.3051L40.6155 35.1371C40.6549 34.9909 40.6887 34.8427 40.7176 34.6921L40.7691 34.3808L40.7978 34.1603L40.8424 33.6367L40.8571 33.0805L40.8557 32.9109L40.8475 32.6035L40.8211 32.1294L40.7847 31.705L40.742 31.317L40.6382 30.5818L40.535 29.9886L40.4685 29.6443L40.3469 29.0732L40.1944 28.4253L40.019 27.7459L39.8783 27.2372L39.809 26.9966C39.6081 26.3082 39.3571 25.5347 39.0594 24.6764L38.7149 23.7021L37.584 20.694L37.5896 20.2705C37.5897 11.0247 32.7891 3.71429 23.9999 3.71429ZM23.9999 7.71429C30.7124 7.71429 33.5034 13.8076 33.5877 19.9656L33.5892 20.3775L33.5715 21.3882L34.9473 25.0457L35.1349 25.5718C35.4455 26.4514 35.7418 27.338 35.969 28.1169L36.0611 28.4384L36.1472 28.7505L36.3021 29.3474L36.435 29.9082L36.5471 30.4333L36.5957 30.6827L36.679 31.1555L36.714 31.379L36.7714 31.8007C36.7878 31.9357 36.8016 32.0651 36.8131 32.189L36.8284 32.3709L36.8489 32.7102L36.8571 33.0177L36.8566 33.1596L36.8482 33.4202L36.8404 33.539L36.8185 33.7539L36.7891 33.9392L36.7535 34.0954L36.713 34.223L36.6913 34.2763L36.6689 34.3226L36.6224 34.3948C36.5909 34.4339 36.5586 34.4551 36.5273 34.4592C36.3064 34.4876 35.9513 34.1522 35.5709 33.6836L35.3615 33.4161L35.0514 32.9903L34.7516 32.5518L34.5277 32.2099L34.1498 31.6081L33.8481 31.1043C33.8481 33.1002 32.8831 35.7057 30.7907 37.5831C31.576 37.8383 32.546 38.234 33.1671 38.7201C33.7202 39.1531 33.6513 39.5944 33.5516 39.7728C33.4748 39.9101 33.1936 40.0147 32.7712 40.0924L32.6063 40.1202L32.1907 40.1741L31.7201 40.2164L31.3098 40.2425L30.8741 40.262L30.4172 40.2755L29.7017 40.2853L28.9629 40.2833L28.4023 40.2754L27.4003 40.2486L26.7521 40.2233L26.1322 40.1933L25.2784 40.1415L24.5478 40.0845L24 40.0288L23.8531 40.0454L23.3272 40.0954L22.9137 40.1278L22.2155 40.1738L21.1738 40.2265L20.338 40.2571L19.4803 40.2775L18.9072 40.2844L18.3407 40.2853L17.7875 40.2795L17.2541 40.2665L16.7471 40.2455L16.5055 40.2318L16.0503 40.1978C15.1806 40.1204 14.5678 39.9862 14.4484 39.7728C14.3487 39.5944 14.2798 39.1531 14.8329 38.7201C15.4076 38.2704 16.281 37.898 17.0304 37.6426L17.205 37.584L16.9515 37.3468C15.1214 35.5706 14.2309 33.231 14.1569 31.3569L14.1519 31.1043L14.0469 31.2825L13.6751 31.8908L13.3626 32.3789L13.1305 32.727L12.8869 33.0774L12.6716 33.3721L12.4568 33.6493C12.066 34.1357 11.6989 34.4883 11.4727 34.4592C11.4289 34.4535 11.3832 34.4142 11.3403 34.3393L11.3087 34.2763L11.2662 34.1628L11.2465 34.0954L11.228 34.0209L11.1954 33.8503L11.1695 33.6502L11.1518 33.4202L11.1434 33.1596L11.1456 32.8679L11.1597 32.5446L11.1869 32.189L11.2286 31.8007L11.286 31.379L11.3817 30.8041L11.5064 30.1752L11.6287 29.6323L11.6978 29.3474L11.8527 28.7505C11.9081 28.5455 11.9674 28.3343 12.0309 28.1169C12.1399 27.7431 12.2649 27.3444 12.3998 26.9336L12.6808 26.0995L13.0526 25.0457L14.4284 21.3882L14.4116 20.4642L14.4123 19.9656C14.4965 13.8076 17.2875 7.71429 23.9999 7.71429ZM24 20.9142C27.1066 20.9142 29.625 20.1467 29.625 19.1999C29.625 18.2531 27.1066 17.4856 24 17.4856C20.8934 17.4856 18.375 18.2531 18.375 19.1999C18.375 20.1467 20.8934 20.9142 24 20.9142Z" fill="black"/>
</svg>
