<svg width="48" height="48" viewBox="0 0 48 48" fill="none" xmlns="http://www.w3.org/2000/svg">
<path fill-rule="evenodd" clip-rule="evenodd" d="M8.42429 40L11.6557 8L11.6557 4V8H33.1574L39.827 15.7998L37.3846 40L8.42429 40ZM35 4H11.6557C9.60216 4 7.88224 5.55499 7.67592 7.59812L4.44453 39.5981C4.20661 41.9542 6.05625 44 8.42429 44H37.3846C39.4382 44 41.1581 42.4449 41.3644 40.4017L43.9785 14.5L35 4ZM22.4762 23.6176H18.4764H15.5236L14.5236 19.6176H15.5236H18.6467H22.5H22.8L23.1064 17.0245L23.7 12L27.3089 15.546L31.4527 19.6176L35.5236 23.6176H29.8164H26.5236H26.5L26.453 24.048L25.08 36.6176H21.0846L21.1315 36.1863L21.5201 32.6176L22.0645 27.6176L22.5 23.6176H22.4762Z" fill="black"/>
</svg>
