<svg width="48" height="48" viewBox="0 0 48 48" fill="none" xmlns="http://www.w3.org/2000/svg">
<path d="M37.237 15.0092C38.9808 17.5716 40 20.6666 40 23.9998C40 32.8363 32.8366 39.9998 24 39.9998C15.1634 39.9998 8 32.8363 8 23.9998C8 20.5146 9.10971 17.3004 10.9957 14.6757L11.9497 13.3481L11.7008 11.7324C11.5885 11.004 11.5299 10.2833 11.524 9.56873C12.3642 9.65119 13.2121 9.64063 14.0605 9.54688C15.1497 9.42652 16.1363 9.23005 17.0636 9.02767L17.0725 9.02571L18.6505 8.67371L19.4928 8.49234C19.77 8.43456 20.0554 8.37726 20.352 8.32088C21.5989 8.08384 22.643 7.98512 23.504 7.98939L23.5468 7.99038L23.5459 7.99985C27.5053 8.02334 30.7375 11.1149 30.9852 15.0174C27.8014 16.149 25.4429 19.0222 25.0559 22.491C24.9547 22.4968 24.8527 22.4997 24.75 22.4997C22.4672 22.4997 20.5246 21.0427 19.8016 19.0078L16.2695 20.9493C17.6968 24.2165 20.9568 26.4997 24.75 26.4997C25.9959 26.4997 27.1842 26.2534 28.269 25.8069C28.7079 25.6446 29.1298 25.4553 29.5332 25.2408C28.6947 23.7882 28.1647 22.1353 28.0325 20.3713L28.0161 20.0991L28.4136 20.1585C30.1261 20.4453 31.7105 21.1107 33.0787 22.0669C34.2644 20.3328 34.9494 18.1796 34.9973 15.7717C34.9994 15.6813 35.0005 15.5906 35.0005 15.4997C35.0005 9.31591 30.1197 4.27206 24.0003 4.01038V3.99977L23.563 3.98969C22.3801 3.98066 21.0607 4.11451 19.605 4.39125C19.2774 4.45352 18.9644 4.51644 18.6634 4.57924L17.794 4.76646L16.2106 5.11966C15.3297 5.31193 14.5028 5.47366 13.6212 5.57108C12.5614 5.68819 11.5666 5.61265 10.6368 5.34446L10.1793 5.20334C9.17701 4.947 8.1306 5.50217 7.79219 6.49822C7.75205 6.61636 7.72305 6.73801 7.70558 6.86155C7.44964 8.67125 7.46335 10.498 7.74742 12.3415C5.38889 15.6237 4 19.6496 4 23.9998C4 35.0455 12.9543 43.9998 24 43.9998C29.4202 43.9998 34.3368 41.8436 37.9389 38.3423L40.5504 41.4991C41.0928 42.1657 42.0564 42.3369 42.7867 41.8551C43.5597 41.3463 43.7736 40.3064 43.264 39.5338L40.8236 34.8193C42.8337 31.7003 44 27.9862 44 23.9998C44 19.8711 42.749 16.0345 40.6053 12.8486L37.237 15.0092Z" fill="black"/>
<path d="M26 14C26 15.1046 25.1046 16 24 16C22.8954 16 22 15.1046 22 14C22 12.8954 22.8954 12 24 12C25.1046 12 26 12.8954 26 14Z" fill="black"/>
<path d="M37.1231 26.3742C35.8936 24.5388 33.4091 24.0478 31.5738 25.2774C29.7385 26.5069 29.2475 28.9914 30.477 30.8268C31.2531 31.9858 32.5298 32.608 33.8273 32.6C34.4975 32.3055 35.1518 31.948 35.7816 31.5261C36.3969 31.1137 36.9642 30.6559 37.4824 30.161C37.9897 28.9609 37.9024 27.5375 37.1231 26.3742Z" fill="black"/>
</svg>
