<svg width="48" height="48" viewBox="0 0 48 48" fill2="none" xmlns="http://www.w3.org/2000/svg">
<path fill-rule="evenodd" clip-rule="evenodd"  d="M18 10C18 8.89543 18.8954 8 20 8H28C29.1046 8 30 8.89543 30 10V40H18V10Z" stroke="black" stroke-width="4"/>
<path fill-rule="evenodd" clip-rule="evenodd"  d="M30 26C30 24.8954 30.8954 24 32 24H40C41.1046 24 42 24.8954 42 26V38C42 39.1046 41.1046 40 40 40H30V26Z" stroke="black" stroke-width="4"/>
<path fill-rule="evenodd" clip-rule="evenodd"  d="M6 18C6 16.8954 6.89543 16 8 16H16C17.1046 16 18 16.8954 18 18V40H8C6.89543 40 6 39.1046 6 38V18Z" stroke="black" stroke-width="4"/>
</svg>
