<svg width="48" height="48" viewBox="0 0 48 48" fill="none" xmlns="http://www.w3.org/2000/svg">
<path fill-rule="evenodd" clip-rule="evenodd" d="M36.2857 8.28571H11.7143V39.7143H36.2857L36.2857 8.28571ZM11.7143 4.28571C9.50516 4.28571 7.71429 6.07657 7.71429 8.2857V39.7143C7.71429 41.9234 9.50516 43.7143 11.7143 43.7143H36.2857C38.4949 43.7143 40.2857 41.9234 40.2857 39.7143V8.28571C40.2857 6.07657 38.4949 4.28571 36.2857 4.28571H11.7143ZM23.6273 25.6632V28.3716L23.6347 28.5284C23.7131 29.3542 24.4043 30 25.2453 30C25.6297 30 26.0016 29.8622 26.2943 29.6114L33.9826 23.0226L34.1213 22.8926C34.8665 22.1275 34.9213 20.9027 34.2178 20.0712C34.1458 19.9861 34.0672 19.907 33.9826 19.8345L26.2943 13.2458L26.1629 13.1442C25.488 12.6753 24.5565 12.7879 24.0134 13.4299C23.7642 13.7244 23.6273 14.0987 23.6273 14.4856V17.1289L23.2544 17.1913C18.6403 18.0233 15.4798 20.8671 13.7728 25.7229L13.7611 25.7562C13.7201 25.8736 13.6799 25.9922 13.6406 26.112L13.6366 26.1241C13.5694 26.329 13.5047 26.5374 13.4425 26.7492L13.3274 27.1547L13.2992 27.2876C13.211 27.8631 13.5636 28.4265 14.1351 28.5848C14.4374 28.6686 14.7605 28.6251 15.0303 28.4644L15.9759 27.9058L16.0365 27.87L16.068 27.8514L16.2126 27.7686L16.2606 27.7412L16.2651 27.7386L16.2831 27.7283L16.7156 27.4807C18.0674 26.7231 19.2461 26.1806 20.6273 25.8927C21.2408 25.7648 21.8944 25.6871 22.6207 25.6632C22.9411 25.6526 23.2757 25.6525 23.6273 25.6632ZM18.2874 23.4401C19.8436 22.8896 21.5393 22.5986 23.7181 22.6646L26.6273 22.7527V25.3751L31.2325 21.4286L26.6273 17.482V19.6688L24.1222 20.0878L23.7691 20.1469C21.8417 20.4974 20.3588 21.2648 19.1971 22.3965C18.8796 22.7057 18.5757 23.0525 18.2874 23.4401ZM30 35H18V38H30V35Z" fill="black"/>
</svg>
