<svg width="48" height="48" viewBox="0 0 48 48" fill="none" xmlns="http://www.w3.org/2000/svg">
<path fill-rule="evenodd" clip-rule="evenodd" d="M25.4691 9.46489C26.4547 7.45407 28.4497 6.10296 30.728 6.00563L30.9921 6C33.7331 6 36.1108 7.81462 36.8972 10.4421L37.0283 10.8851L37.4065 10.8993C40.7559 11.0766 43.4416 12.5155 44.5453 15.4704L44.6441 15.7519C45.6928 18.9383 44.3478 21.8718 41.6099 24.1869C41.4902 24.2883 41.3688 24.3876 41.2458 24.4848L40.8 24.7988V30.6573C40.8 37.1939 35.7024 42.5767 29.3015 42.7459L28.9907 42.75H19.0093C12.4633 42.75 7.2 37.2993 7.2 30.6573V24.7988L6.75575 24.486L6.39197 24.1885C3.65197 21.8711 2.30717 18.9382 3.35593 15.7519C4.42257 12.5112 7.3076 10.9912 10.9103 10.8864L10.9696 10.8851L11.1045 10.4377C11.8639 7.89967 14.115 6.11794 16.7438 6.00563L17.0079 6C19.3956 6 21.5077 7.37697 22.5301 9.46235L22.678 9.81233H25.3275L25.4691 9.46489ZM32.6762 11.3711C32.3987 10.6641 31.7406 10.2 30.9921 10.2C30.1901 10.2 29.4919 10.7328 29.2547 11.5259L28.5586 14.0135H19.4414L18.7453 11.5262L18.6918 11.3711C18.4146 10.6641 17.7565 10.2 17.0079 10.2C16.2062 10.2 15.508 10.7328 15.2706 11.5265L14.0839 15.6769L13.7109 15.5684C12.8372 15.3335 11.9405 15.2263 11.0358 15.2525C9.06993 15.3097 7.87574 15.9389 7.48615 17.1226C7.09657 18.3062 7.67126 19.5596 9.1943 20.8478C9.85459 21.4066 10.5846 21.87 11.3649 22.2297V30.8253L11.3691 31.085C11.5018 35.2245 14.7951 38.55 18.8242 38.55H29.1758L29.4266 38.5457C33.424 38.4082 36.6351 34.9975 36.6351 30.8253V22.2297L37.021 22.0412C37.6569 21.7129 38.2557 21.3135 38.8057 20.8478C40.3287 19.5599 40.9034 18.3062 40.5138 17.1226C40.1243 15.9389 38.9301 15.3097 36.9645 15.2525C35.9305 15.2228 34.907 15.3669 33.9164 15.6769L32.7297 11.5262L32.6762 11.3711Z" fill="black"/>
</svg>
