<svg width="48" height="48" viewBox="0 0 48 48" fill="none" xmlns="http://www.w3.org/2000/svg">
<path fill-rule="evenodd" clip-rule="evenodd" d="M21.037 33.3968L19.8397 32H18H8V11L40 11V32H30H28.1603L26.963 33.3968L24 36.8536L21.037 33.3968ZM18 36L22.4815 41.2284C23.2797 42.1596 24.7203 42.1596 25.5185 41.2284L30 36H40C42.2091 36 44 34.2091 44 32V11C44 8.79086 42.2091 7 40 7H8C5.79086 7 4 8.79086 4 11V32C4 34.2091 5.79086 36 8 36H18ZM14.5 23.8571C15.8807 23.8571 17 22.7379 17 21.3571C17 19.9764 15.8807 18.8571 14.5 18.8571C13.1193 18.8571 12 19.9764 12 21.3571C12 22.7379 13.1193 23.8571 14.5 23.8571ZM24 23.8571C25.3807 23.8571 26.5 22.7379 26.5 21.3571C26.5 19.9764 25.3807 18.8571 24 18.8571C22.6193 18.8571 21.5 19.9764 21.5 21.3571C21.5 22.7379 22.6193 23.8571 24 23.8571ZM36 21.3571C36 22.7379 34.8807 23.8571 33.5 23.8571C32.1193 23.8571 31 22.7379 31 21.3571C31 19.9764 32.1193 18.8571 33.5 18.8571C34.8807 18.8571 36 19.9764 36 21.3571Z" fill="black"/>
</svg>
