<svg width="48" height="48" viewBox="0 0 48 48" fill="none" xmlns="http://www.w3.org/2000/svg">
<path fill-rule="evenodd" clip-rule="evenodd" d="M39.8932 25.8588C38.9721 33.8197 32.2078 40 24 40C15.1634 40 8 32.8366 8 24C8 17.4293 11.9607 11.7838 17.6249 9.32048C16.8147 10.1462 16.0944 11.0866 15.4891 12.1349C11.6231 18.831 13.9174 27.3933 20.6135 31.2593C27.3096 35.1253 35.8719 32.831 39.7378 26.1349C39.7908 26.0432 39.8426 25.9512 39.8932 25.8588ZM32.0844 10.1897C33.1142 10.7938 34.0704 11.5098 34.9364 12.3211C37.852 15.4524 38.5245 20.2364 36.2737 24.1349C33.5123 28.9178 27.3964 30.5566 22.6135 27.7952C17.8306 25.0337 16.1918 18.9178 18.9532 14.1349C21.6138 9.52666 27.3883 7.83713 32.0844 10.1897ZM34.0075 6.68C34.2111 6.7847 34.4131 6.89487 34.6135 7.01056C35.8147 7.7041 36.8743 8.54878 37.7821 9.50672C41.6124 13.1502 44 18.2963 44 24C44 35.0457 35.0457 44 24 44C12.9543 44 4 35.0457 4 24C4 12.9543 12.9543 4 24 4C27.646 4 31.0641 4.9756 34.0075 6.68Z" fill="black"/>
</svg>
