<svg width="48" height="48" viewBox="0 0 48 48" fill="none" xmlns="http://www.w3.org/2000/svg">
<path fill-rule="evenodd" clip-rule="evenodd" d="M21.3317 22.5037L17.5511 21.7331L19.9765 18.9296C20.9974 17.7497 21.4689 16.1916 21.2736 14.6436L20.8146 11.0051L24.2774 12.4715C25.6932 13.071 27.2953 13.0504 28.6952 12.4147L32.1781 10.8332L31.8831 14.6469C31.7645 16.1798 32.2931 17.6923 33.3407 18.8177L35.903 21.5702L32.327 22.3833C30.8056 22.7292 29.5027 23.7052 28.7431 25.068L26.9382 28.306L24.921 25.017C24.1245 23.7181 22.8247 22.808 21.3317 22.5037ZM10.0525 24.287L14.5488 25.2034L20.5328 26.4231C20.9398 26.5061 21.2941 26.7542 21.5112 27.1082L24.704 32.3142L27.103 36.2259L29.3372 32.2178L32.2369 27.0155C32.444 26.644 32.7991 26.378 33.2139 26.2837L39.0546 24.9557L43.5648 23.9301L40.4132 20.5446L36.2685 16.0922C35.9829 15.7855 35.8389 15.3732 35.8712 14.9553L36.336 8.94504L36.6882 4.39203L32.5302 6.28017L27.0414 8.77265C26.6598 8.94593 26.2231 8.95154 25.8372 8.78812L20.2357 6.41616L15.9764 4.61257L16.5554 9.20156L17.3051 15.1442C17.3583 15.5662 17.2298 15.9909 16.9515 16.3125L13.0548 20.8167L10.0525 24.287ZM16.7217 29.5472L16.8642 29.647L19.9983 31.8415L20.1408 31.9413L17.8465 35.2179L12.5895 42.7255L10.2952 46.0022L10.1528 45.9024L7.01864 43.7078L6.87617 43.6081L9.17048 40.3315L14.4274 32.8238L16.7217 29.5472Z" fill="black"/>
</svg>
