<svg width="48" height="48" viewBox="0 0 48 48" fill="none" xmlns="http://www.w3.org/2000/svg">
<path fill-rule="evenodd" clip-rule="evenodd" d="M26 13.5V21.5C26 23.9853 23.9853 26 21.5 26C19.0147 26 17 23.9853 17 21.5V13.5C17 11.0147 19.0147 9 21.5 9C23.9853 9 26 11.0147 26 13.5ZM13 13.5C13 8.80558 16.8056 5 21.5 5C26.1944 5 30 8.80558 30 13.5V21.5C30 26.1944 26.1944 30 21.5 30C16.8056 30 13 26.1944 13 21.5V13.5ZM26.4149 36.6326V35.9192V32.1708C25.3625 32.7251 24.215 33.0958 22.9863 33.2663C22.4726 33.3375 21.9448 33.3737 21.4037 33.3737C16.519 33.3737 12.1734 30.4293 10.2224 25.9704C10.1391 25.78 10.0606 25.5876 9.98678 25.3932C9.87541 25.0997 9.77496 24.8018 9.68569 24.5L6.43495 25.5958L6 25.7424L6.1573 26.2453C6.23473 26.4799 6.31722 26.7125 6.4047 26.943C6.50364 27.2037 6.60896 27.4616 6.72055 27.7167C6.90056 28.1281 7.09569 28.5296 7.30512 28.9206C9.80301 33.5841 14.3353 36.7535 19.5 37.3844V39.6429V43.0714H20.0714H22.9286H23.5V39.6429V37.3566C24.5127 37.2156 25.4861 36.972 26.4149 36.6326ZM37.7143 28.6471L32.6429 31.183V37.3884L37.7143 39.9244L42.7857 37.3884V31.183L37.7143 28.6471ZM38.571 25.1623C38.0317 24.8926 37.3969 24.8926 36.8576 25.1623L30.2016 28.4905C29.5527 28.815 29.1429 29.4782 29.1429 30.2037V38.3677C29.1429 39.0932 29.5527 39.7564 30.2016 40.0809L36.8576 43.4092C37.3969 43.6788 38.0317 43.6788 38.571 43.4092L45.2269 40.0809C45.8758 39.7564 46.2857 39.0932 46.2857 38.3677V30.2037C46.2857 29.4782 45.8758 28.815 45.2269 28.4905L38.571 25.1623ZM40.5734 33.864L39.0985 31.7576L37.7527 32.6999L36.2315 33.7651L34.8857 34.7074L36.3606 36.8138L37.7064 35.8715L39.2277 34.8063L40.5734 33.864Z" fill="black"/>
</svg>
