<svg width="48" height="48" viewBox="0 0 48 48" fill="none" xmlns="http://www.w3.org/2000/svg">
<path fill-rule="evenodd" clip-rule="evenodd" d="M28.5123 11.8005H29.6594L30.6322 11.1926L32.3425 10.1237L33.5106 30H13.6562L14.4467 10.1362L16.2504 11.225L17.2038 11.8005H18.3176H28.5123ZM9.65308 30L10.5773 6.77514C10.6411 5.17391 12.3986 4.22752 13.7705 5.05568L18.3176 7.80054H28.5123L32.9294 5.04C34.2857 4.19242 36.0546 5.10607 36.1484 6.7026L37.5175 30H42.6084C43.3067 30 43.8116 30.6672 43.6219 31.3393L42.0238 37L43.6219 42.6607C43.8116 43.3328 43.3067 44 42.6084 44H8.21258C5.88604 44 4 42.114 4 39.7874V34.2126C4 31.886 5.88604 30 8.21258 30H9.65308ZM9.4939 34H8.21258C8.09518 34 8 34.0952 8 34.2126V39.7874C8 39.9048 8.09518 40 8.21258 40H38.7144L38.1743 38.0868L37.8674 37L38.1743 35.9132L38.7144 34H37.7526L37.7562 34.0622H33.7493H13.4946H9.49142L9.4939 34ZM17.7589 15.3404V19.9529H21.9715V15.3404H17.7589ZM25.5031 19.9529V15.3404H29.7157V19.9529H25.5031Z" fill="black"/>
</svg>
