<svg width="48" height="48" viewBox="0 0 48 48" fill="none" xmlns="http://www.w3.org/2000/svg">
<path fill-rule="evenodd" clip-rule="evenodd" d="M26.8286 5.00012C25.2665 3.43803 22.7339 3.43803 21.1718 5.00013L18.1719 7.99994H12C9.79086 7.99994 8 9.7908 8 11.9999V18.1719L5.00019 21.1717C3.43809 22.7338 3.43809 25.2665 5.00019 26.8286L8 29.8284V35.9999C8 38.2091 9.79086 39.9999 12 39.9999H18.1716L21.1718 43.0001C22.7339 44.5622 25.2665 44.5622 26.8286 43.0001L29.8288 39.9999H36C38.2091 39.9999 40 38.2091 40 35.9999V29.8287L43.0002 26.8286C44.5623 25.2665 44.5623 22.7338 43.0002 21.1717L40 18.1715V11.9999C40 9.7908 38.2091 7.99994 36 7.99994H29.8284L26.8286 5.00012ZM24.0002 7.82855L27.5858 11.4142L28.1716 11.9999H29H36V18.9999V19.8284L36.5858 20.4142L40.1718 24.0001L36.5858 27.5861L36 28.1719V29.0003V35.9999H29.0004H28.1719L27.5862 36.5857L24.0002 40.1717L20.4142 36.5857L19.8284 35.9999H19H12V28.9999V28.1715L11.4142 27.5857L7.82861 24.0001L11.4142 20.4145L12 19.8287V19.0003V11.9999H19.0004H19.8288L20.4146 11.4142L24.0002 7.82855L22.586 6.41434L24.0002 7.82855ZM15.5741 24.8293L20.5347 29.7899C21.3158 30.5709 22.5821 30.5709 23.3632 29.7899L32.4576 20.6954L29.6292 17.867L21.949 25.5472L18.4026 22.0008L15.5741 24.8293Z" fill="black"/>
</svg>
