<svg width="48" height="48" viewBox="0 0 48 48" fill="none" xmlns="http://www.w3.org/2000/svg">
<path fill-rule="evenodd" clip-rule="evenodd" d="M26.8286 5.00019C25.2665 3.43809 22.7339 3.43809 21.1718 5.00019L18.1719 8H11.9999C9.7908 8 7.99994 9.79087 7.99994 12V18.172L5.00019 21.1718C3.43809 22.7339 3.43809 25.2665 5.00019 26.8286L7.99994 29.8284V36C7.99994 38.2091 9.7908 40 11.9999 40H18.1716L21.1718 43.0002C22.7339 44.5623 25.2665 44.5623 26.8286 43.0002L29.8288 40H35.9999C38.2091 40 39.9999 38.2091 39.9999 36V29.8289L43.0002 26.8286C44.5623 25.2665 44.5623 22.7339 43.0002 21.1718L39.9999 18.1715V12C39.9999 9.79086 38.2091 8 35.9999 8H29.8284L26.8286 5.00019ZM24.0002 7.82861L27.5858 11.4142L28.1716 12H29H35.9999V18.9999V19.8284L36.5857 20.4142L40.1718 24.0002L36.5857 27.5862L35.9999 28.172V29.0004V36H29.0004H28.1719L27.5862 36.5858L24.0002 40.1718L20.4142 36.5858L19.8284 36H19H11.9999V28.9999V28.1715L11.4142 27.5857L7.82861 24.0002L11.4142 20.4146L11.9999 19.8289V19.0004V12L19.0004 12H19.8288L20.4146 11.4142L24.0002 7.82861ZM26.5233 33.207C26.4813 33.249 26.4182 33.27 26.3342 33.27H23.2453C23.1612 33.27 23.0982 33.249 23.0562 33.207C23.0141 33.1649 22.9931 33.1019 22.9931 33.0178V19.8007H22.9301L20.1354 21.7129C20.0513 21.7689 19.9813 21.7829 19.9252 21.7549C19.8832 21.7269 19.8622 21.6568 19.8622 21.5448V18.3508C19.8622 18.2808 19.8762 18.2177 19.9042 18.1617C19.9322 18.0917 19.9743 18.0356 20.0303 17.9936L22.9931 15.8713C23.0492 15.8153 23.1122 15.7802 23.1822 15.7662C23.2663 15.7382 23.3573 15.7242 23.4554 15.7242H26.3342C26.4182 15.7242 26.4813 15.7452 26.5233 15.7872C26.5793 15.8293 26.6073 15.8923 26.6073 15.9764V33.0178C26.6073 33.1019 26.5793 33.1649 26.5233 33.207Z" fill="black"/>
</svg>
