<svg width="48" height="48" viewBox="0 0 48 48" fill="none" xmlns="http://www.w3.org/2000/svg">
<path fill-rule="evenodd" clip-rule="evenodd" d="M32 9H16V39H32V9ZM36 9C36 6.79086 34.2091 5 32 5H16C13.7909 5 12 6.79086 12 9V11.822L11.7283 11.576L11.3052 11.1744L10.8967 10.7648C10.7178 10.5806 10.5419 10.393 10.3675 10.2008L10.1424 9.94801L10.084 9.87892C7.95039 7.41518 4.29982 7.68549 2.39349 10.1783C1.34655 11.5473 1.00071 13.2464 1.13323 15.1335L1.16154 15.4685L1.17877 15.6435L1.21131 15.8163C1.43355 16.997 1.7663 18.0983 2.20576 19.1143L2.40062 19.5445L2.51636 19.78L2.38991 19.9823C1.85917 20.8979 1.67238 22.0534 2.0081 23.4086L2.08226 23.6823L2.15272 23.9077L2.21788 24.1045L2.30304 24.2935C3.16091 26.1978 4.39298 27.6814 5.94283 28.6997L6.23714 28.8852L6.47636 29.023L6.47179 29.0702C6.3721 30.5656 6.92973 32.041 8.28703 33.0815L8.49664 33.2342L8.70802 33.3737L8.83451 33.4499L9.18295 33.6512L9.825 33.8951L10.0695 33.9543C10.6967 34.1061 11.3337 34.1772 12 34.1717V39C12 41.2091 13.7909 43 16 43H32C34.2091 43 36 41.2091 36 39V34.169C36.7236 34.1878 37.4115 34.118 38.0879 33.9543L38.3324 33.8951L38.9744 33.6512L39.3228 33.4499L39.4493 33.3737L39.6607 33.2342L39.8703 33.0815C41.2276 32.041 41.7853 30.5656 41.6856 29.0702L41.681 29.023L41.9202 28.8852L42.2145 28.6997C43.7644 27.6814 44.9965 26.1978 45.8543 24.2935L45.9395 24.1045L46.0046 23.9077L46.0751 23.6823L46.1493 23.4086C46.485 22.0534 46.2982 20.8979 45.7675 19.9823L45.641 19.78L45.7567 19.5445L45.9516 19.1143C46.3911 18.0983 46.7238 16.997 46.9461 15.8163L46.9786 15.6435L47.0241 15.1335C47.1567 13.2464 46.8108 11.5473 45.7639 10.1783C43.8575 7.68549 40.207 7.41518 38.0734 9.87892L38.015 9.94801L37.7898 10.2008C37.6155 10.393 37.4396 10.5806 37.2607 10.7648L36.8521 11.1744L36.4291 11.576L36.1157 11.8597C36.0774 11.8937 36.0388 11.9278 36 11.9617V9ZM36 17.0302V26.3232L36.1371 26.3261C36.9103 26.3306 37.4757 26.2813 38.1108 26.1418C39.9147 25.7455 41.3011 24.6621 42.2073 22.6506C42.4448 21.9333 42.008 21.6414 41.2482 21.5957L40.9872 21.5888L40.8531 21.5899L40.5454 21.5997L40.1713 21.6196L38.4221 21.7399L38.4653 21.7182L38.7397 21.5639C38.9212 21.4576 39.1 21.3441 39.2763 21.2229C41.1581 19.9291 42.4765 17.9377 43.0151 15.0764C43.1257 13.9531 42.9666 13.1051 42.5865 12.6081C42.1989 12.1013 41.6001 12.0254 41.1834 12.4084L41.0971 12.4975L41.0542 12.5505L40.8019 12.8337C39.4026 14.3835 37.9472 15.6514 36 17.0302ZM36 26.9882V30.1607C36.3547 30.1774 36.6758 30.1584 36.9695 30.1043L37.1468 30.0666L37.2525 30.0264L37.322 29.9863L37.403 29.9295C38.063 29.4136 37.5674 28.3099 36 26.9882ZM12 30.1658V27.1233C10.5573 28.3849 10.117 29.4313 10.7543 29.9295L10.8354 29.9863L10.9048 30.0264L11.0105 30.0666L11.1879 30.1043C11.4375 30.1503 11.707 30.1709 12 30.1658ZM12 26.3262V16.9182C10.1313 15.5824 8.71678 14.3415 7.35549 12.8337L7.10315 12.5505L7.06027 12.4975L6.97392 12.4084C6.55729 12.0254 5.95848 12.1013 5.57086 12.6081C5.19081 13.1051 5.03162 13.9531 5.14227 15.0764C5.68087 17.9377 6.99923 19.9291 8.8811 21.2229C9.0574 21.3441 9.2362 21.4576 9.4177 21.5639L9.69202 21.7182L9.73531 21.7399L7.98608 21.6196L7.612 21.5997L7.30425 21.5899L7.17017 21.5888L6.9092 21.5957C6.14938 21.6414 5.71258 21.9333 5.95005 22.6506C6.85625 24.6621 8.24263 25.7455 10.0466 26.1418C10.6762 26.2801 11.2372 26.3298 12 26.3262Z" fill="black"/>
</svg>
