<svg width="48" height="48" viewBox="0 0 48 48" fill="none" xmlns="http://www.w3.org/2000/svg">
<path fill-rule="evenodd" clip-rule="evenodd" d="M12 10H36C37.1046 10 38 10.8954 38 12V36C38 37.1046 37.1046 38 36 38H12C10.8954 38 10 37.1046 10 36V12C10 10.8954 10.8954 10 12 10ZM6 12C6 8.68629 8.68629 6 12 6H36C39.3137 6 42 8.68629 42 12V36C42 39.3137 39.3137 42 36 42H12C8.68629 42 6 39.3137 6 36V12ZM32.7273 13.7143H24.3117H23.6883H15.2727H13.7143V15.5844V19.3247H16.8312V16.8312H22.4416V31.1688L19.013 31.1688V34.2857H28.987V31.1688L25.5584 31.1688V16.8312H31.1688V19.3247H34.2857V15.5844V13.7143H32.7273Z" fill="black"/>
</svg>
