<svg width="48" height="48" viewBox="0 0 48 48" fill="none" xmlns="http://www.w3.org/2000/svg">
<path fill-rule="evenodd" clip-rule="evenodd" d="M19.71 11.9644V11.9644H19.7149H19.7198H19.7246H19.7295H19.7344H19.7393H19.7443H19.7492H19.7541H19.7591H19.764H19.769H19.774H19.779H19.784H19.789H19.794H19.799H19.804H19.8091H19.8141H19.8192H19.8243H19.8294H19.8344H19.8395H19.8447H19.8498H19.8549H19.86H19.8652H19.8703H19.8755H19.8807H19.8859H19.8911H19.8963H19.9015H19.9067H19.9119H19.9172H19.9224H19.9277H19.933H19.9382H19.9435H19.9488H19.9541H19.9595H19.9648H19.9701H19.9755H19.9808H19.9862H19.9916H19.997H20.0024H20.0078H20.0132H20.0186H20.024H20.0295H20.0349H20.0404H20.0458H20.0513H20.0568H20.0623H20.0678H20.0733H20.0789H20.0844H20.0899H20.0955H20.1011H20.1066H20.1122H20.1178H20.1234H20.129H20.1347H20.1403H20.1459H20.1516H20.1572H20.1629H20.1686H20.1743H20.18H20.1857H20.1914H20.1971H20.2029H20.2086H20.2144H20.2201H20.2259H20.2317H20.2375H20.2433H20.2491H20.2549H20.2607H20.2666H20.2724H20.2783H20.2842H20.29H20.2959H20.3018H20.3077H20.3136H20.3196H20.3255H20.3314H20.3374H20.3434H20.3493H20.3553H20.3613H20.3673H20.3733H20.3793H20.3854H20.3914H20.3975H20.4035H20.4096H20.4157H20.4217H20.4278H20.434H20.4401H20.4462H20.4523H20.4585H20.4646H20.4708H20.477H20.4831H20.4893H20.4955H20.5017H20.508H20.5142H20.5204H20.5267H20.5329H20.5392H20.5455H20.5518H20.5581H20.5644H20.5707H20.577H20.5833H20.5897H20.596H20.6024H20.6088H20.6151H20.6215H20.6279H20.6343H20.6408H20.6472H20.6536H20.6601H20.6665H20.673H20.6795H20.686H20.6925H20.699H20.7055H20.712H20.7185H20.7251H20.7316H20.7382H20.7448H20.7513H20.7579H20.7645H20.7711H20.7778H20.7844H20.791H20.7977H20.8043H20.811H20.8177H20.8243H20.831H20.8377H20.8445H20.8512H20.8579H20.8647H20.8714H20.8782H20.8849H20.8917H20.8985H20.9053H20.9121H20.9189H20.9258H20.9326H20.9394H20.9463H20.9532H20.96H20.9669H20.9738H20.9807H20.9876H20.9945H21.0015H21.0084H21.0154H21.0223H21.0293H21.0363H21.0433H21.0503H21.0573H21.0643H21.0713H21.0783H21.0854H21.0924H21.0995H21.1066H21.1137H21.1208H21.1279H21.135H21.1421H21.1492H21.1564H21.1635H21.1707H21.1778H21.185H21.1922H21.1994H21.2066H21.2138H21.221H21.2283H21.2355H21.2428H21.25H21.2573H21.2646H21.2719H21.2792H21.2865H21.2938H21.3012H21.3085H21.3158H21.3232H21.3306H21.3379H21.3453H21.3527H21.3601H21.3675H21.375H21.3824H21.3898H21.3973H21.4048H21.4122H21.4197H21.4272H21.4347H21.4422H21.4497H21.4573H21.4648H21.4724H21.4799H21.4875H21.4951H21.5026H21.5102H21.5178H21.5255H21.5331H21.5407H21.5484H21.556H21.5637H21.5713H21.579H21.5867H21.5944H21.6021H21.6098H21.6176H21.6253H21.6331H21.6408H21.6486H21.6564H21.6641H21.6719H21.6797H21.6875H21.6954H21.7032H21.711H21.7189H21.7268H21.7346H21.7425H21.7504H21.7583H21.7662H21.7741H21.7821H21.79H21.7979H21.8059H21.8139H21.8218H21.8298H21.8378H21.8458H21.8538H21.8619H21.8699H21.8779H21.886H21.894H21.9021H21.9102H21.9183H21.9264H21.9345H21.9426H21.9507H21.9589H21.967H21.9752H21.9833H21.9915H21.9997H22.0079H22.0161H22.0243H22.0325H22.0407H22.049H22.0572H22.0655H22.0738H22.082H22.0903H22.0986H22.1069H22.1153H22.1236H22.1319H22.1403H22.1486H22.157H22.1653H22.1737H22.1821H22.1905H22.1989H22.2074H22.2158H22.2242H22.2327H22.2411H22.2496H22.2581H22.2666H22.2751H22.2836H22.2921H22.3006H22.3092H22.3177H22.3262H22.3348H22.3434H22.352H22.3606H22.3692H22.3778H22.3864H22.395H22.4037H22.4123H22.421H22.4296H22.4383H22.447H22.4557H22.4644H22.4731H22.4818H22.4906H22.4993H22.5081H22.5168H22.5256H22.5344H22.5432H22.552H22.5608H22.5696H22.5784H22.5873H22.5961H22.605H22.6138H22.6227H22.6316H22.6405H22.6494H22.6583H22.6672H22.6762H22.6851H22.6941H22.703H22.712H22.721H22.73H22.739H22.748H22.757H22.766H22.7751H22.7841H22.7932H22.8022H22.8113H22.8204H22.8295H22.8386H22.8477H22.8568H22.866H22.8751H22.8843H22.8934H22.9026H22.9118H22.921H22.9302H22.9394H22.9486H22.9578H22.9671H22.9763H22.9856H22.9948H23.0041H23.0134H23.0227H23.032H23.0413H23.0506H23.0599H23.0693H23.0786H23.088H23.0974H23.1067H23.1161H23.1255H23.1349H23.1444H23.1538H23.1632H23.1727H23.1821H23.1916H23.2011H23.2105H23.22H23.2295H23.239H23.2486H23.2581H23.2676H23.2772H23.2868H23.2963H23.3059H23.3155H23.3251H23.3347H23.3443H23.3539H23.3636H23.3732H23.3829H23.3925H23.4022H23.4119H23.4216H23.4313H23.441C27.0378 11.9644 30.0357 14.8138 30.0357 18.4286C30.0357 21.7556 27.4964 24.4342 24.2878 24.8397L31.1557 36.0001H27.13L21.4643 26.7933V34.2858V36.0358H17.9643V34.2858V13.7144V11.9644H19.71ZM21.4643 21.3929H21.4664H21.4739H21.4814H21.4889H21.4964H21.504H21.5115H21.5191H21.5267H21.5342H21.5418H21.5494H21.557H21.5647H21.5723H21.5799H21.5876H21.5952H21.6029H21.6106H21.6182H21.6259H21.6336H21.6414H21.6491H21.6568H21.6645H21.6723H21.6801H21.6878H21.6956H21.7034H21.7112H21.719H21.7268H21.7346H21.7425H21.7503H21.7582H21.766H21.7739H21.7818H21.7897H21.7976H21.8055H21.8134H21.8213H21.8293H21.8372H21.8452H21.8531H21.8611H21.8691H21.8771H21.8851H21.8931H21.9011H21.9092H21.9172H21.9253H21.9333H21.9414H21.9495H21.9576H21.9657H21.9738H21.9819H21.99H21.9982H22.0063H22.0145H22.0226H22.0308H22.039H22.0472H22.0554H22.0636H22.0718H22.08H22.0883H22.0965H22.1048H22.1131H22.1213H22.1296H22.1379H22.1462H22.1545H22.1629H22.1712H22.1795H22.1879H22.1963H22.2046H22.213H22.2214H22.2298H22.2382H22.2466H22.2551H22.2635H22.272H22.2804H22.2889H22.2974H22.3058H22.3143H22.3228H22.3314H22.3399H22.3484H22.357H22.3655H22.3741H22.3826H22.3912H22.3998H22.4084H22.417H22.4256H22.4343H22.4429H22.4516H22.4602H22.4689H22.4776H22.4862H22.4949H22.5036H22.5124H22.5211H22.5298H22.5385H22.5473H22.5561H22.5648H22.5736H22.5824H22.5912H22.6H22.6088H22.6176H22.6265H22.6353H22.6442H22.653H22.6619H22.6708H22.6797H22.6886H22.6975H22.7064H22.7154H22.7243H22.7332H22.7422H22.7512H22.7601H22.7691H22.7781H22.7871H22.7961H22.8052H22.8142H22.8232H22.8323H22.8414H22.8504H22.8595H22.8686H22.8777H22.8868H22.8959H22.9051H22.9142H22.9233H22.9325H22.9417H22.9508H22.96H22.9692H22.9784H22.9876H22.9969H23.0061H23.0153H23.0246H23.0339H23.0431H23.0524H23.0617H23.071H23.0803H23.0896H23.0989H23.1083H23.1176H23.127H23.1363H23.1457H23.1551H23.1645H23.1739H23.1833H23.1927H23.2022H23.2116H23.221H23.2305H23.24H23.2495H23.2589H23.2684H23.2779H23.2875H23.297H23.3065H23.3161H23.3256H23.3352H23.3448H23.3543H23.3639H23.3735H23.3831H23.3928H23.4024H23.412H23.4217H23.4313H23.441C25.1955 21.3929 26.5357 20.0211 26.5357 18.4286C26.5357 16.8362 25.1955 15.4644 23.441 15.4644H23.4313H23.4216H23.4119H23.4022H23.3925H23.3829H23.3732H23.3636H23.3539H23.3443H23.3347H23.3251H23.3155H23.3059H23.2963H23.2868H23.2772H23.2676H23.2581H23.2486H23.239H23.2295H23.22H23.2105H23.2011H23.1916H23.1821H23.1727H23.1632H23.1538H23.1444H23.1349H23.1255H23.1161H23.1067H23.0974H23.088H23.0786H23.0693H23.0599H23.0506H23.0413H23.032H23.0227H23.0134H23.0041H22.9948H22.9856H22.9763H22.9671H22.9578H22.9486H22.9394H22.9302H22.921H22.9118H22.9026H22.8934H22.8843H22.8751H22.866H22.8568H22.8477H22.8386H22.8295H22.8204H22.8113H22.8022H22.7932H22.7841H22.7751H22.766H22.757H22.748H22.739H22.73H22.721H22.712H22.703H22.6941H22.6851H22.6762H22.6672H22.6583H22.6494H22.6405H22.6316H22.6227H22.6138H22.605H22.5961H22.5873H22.5784H22.5696H22.5608H22.552H22.5432H22.5344H22.5256H22.5168H22.5081H22.4993H22.4906H22.4818H22.4731H22.4644H22.4557H22.447H22.4383H22.4296H22.421H22.4123H22.4037H22.395H22.3864H22.3778H22.3692H22.3606H22.352H22.3434H22.3348H22.3262H22.3177H22.3092H22.3006H22.2921H22.2836H22.2751H22.2666H22.2581H22.2496H22.2411H22.2327H22.2242H22.2158H22.2074H22.1989H22.1905H22.1821H22.1737H22.1653H22.157H22.1486H22.1403H22.1319H22.1236H22.1153H22.1069H22.0986H22.0903H22.082H22.0738H22.0655H22.0572H22.049H22.0407H22.0325H22.0243H22.0161H22.0079H21.9997H21.9915H21.9833H21.9752H21.967H21.9589H21.9507H21.9426H21.9345H21.9264H21.9183H21.9102H21.9021H21.894H21.886H21.8779H21.8699H21.8619H21.8538H21.8458H21.8378H21.8298H21.8218H21.8139H21.8059H21.7979H21.79H21.7821H21.7741H21.7662H21.7583H21.7504H21.7425H21.7346H21.7268H21.7189H21.711H21.7032H21.6954H21.6875H21.6797H21.6719H21.6641H21.6564H21.6486H21.6408H21.6331H21.6253H21.6176H21.6098H21.6021H21.5944H21.5867H21.579H21.5713H21.5637H21.556H21.5484H21.5407H21.5331H21.5255H21.5178H21.5102H21.5026H21.4951H21.4875H21.4799H21.4724H21.4648H21.4643V21.3929ZM7.75 30.0001V12.0001H4.25V30.0001C4.25 33.3335 6.95228 36.0358 10.2857 36.0358C13.6191 36.0358 16.3214 33.3335 16.3214 30.0001V12.0001H12.8214V30.0001C12.8214 31.4005 11.6862 32.5358 10.2857 32.5358C8.88528 32.5358 7.75 31.4005 7.75 30.0001ZM36.0357 11.9644V13.7144V32.5358H42H43.75V36.0358H42L36.0357 36.0358H32.5357L32.5357 32.5358L32.5357 13.7144V11.9644H36.0357Z" fill="black"/>
</svg>
