<svg width="48" height="48" viewBox="0 0 48 48" fill="none" xmlns="http://www.w3.org/2000/svg">
<path fill-rule="evenodd" clip-rule="evenodd" d="M7.11377 6.99838H6.95882H6.95658L6.96307 7.02972L6.95658 7.0306C6.79896 7.05231 6.64476 7.08472 6.49473 7.1271C5.05504 7.53371 4 8.85713 4 10.427V27.8555V31.8555C5.3904 31.8555 6.73316 31.6516 8 31.2719C11.9434 30.0903 15.1512 27.2064 16.7702 23.4735C17.296 22.2612 17.6543 20.9593 17.8157 19.5971C19.0559 20.0624 20.3642 20.3918 21.7216 20.5669C22.4673 20.6631 23.2278 20.7127 24 20.7127C24.7722 20.7127 25.5327 20.6631 26.2784 20.5669C27.6358 20.3918 28.9441 20.0624 30.1843 19.5971C30.3457 20.9593 30.704 22.2612 31.2298 23.4735C32.8488 27.2064 36.0566 30.0903 40 31.2719C41.2668 31.6516 42.6096 31.8555 44 31.8555V27.8555V10.427C44 8.85492 42.942 7.52998 41.4992 7.12538C41.3511 7.08385 41.1989 7.05201 41.0434 7.0306L41.0369 7.02972L41.0434 6.99838H41.0412H40.8855H40.5714H36.9587H30.087H17.913H11.0421H7.42857H7.11377ZM8 10.9984V27.0151C11.1388 25.6292 13.4244 22.6627 13.8435 19.1264L14.4438 14.0601L19.2206 15.852C20.699 16.4066 22.3081 16.7127 24 16.7127C25.6919 16.7127 27.301 16.4066 28.7794 15.852L33.5562 14.0601L34.1565 19.1264C34.5756 22.6627 36.8612 25.6292 40 27.0151V10.9984H30.087H17.913H8ZM4 37H7.42857H40.5714H44V37.5714V40.4286V41H40.5714H7.42857H4V40.4286V37.5714V37Z" fill="black"/>
</svg>
