<svg width="49" height="48" viewBox="0 0 49 48" fill="none" xmlns="http://www.w3.org/2000/svg">
<path fill-rule="evenodd" clip-rule="evenodd" d="M28.5208 12.25C28.5208 14.4706 26.7206 16.2708 24.5 16.2708C22.2793 16.2708 20.4791 14.4706 20.4791 12.25C20.4791 10.0293 22.2793 8.22916 24.5 8.22916C26.7206 8.22916 28.5208 10.0293 28.5208 12.25ZM32.5208 12.25C32.5208 16.6798 28.9298 20.2708 24.5 20.2708C20.0702 20.2708 16.4791 16.6798 16.4791 12.25C16.4791 7.82021 20.0702 4.22916 24.5 4.22916C28.9298 4.22916 32.5208 7.82021 32.5208 12.25ZM11.6694 27.3486C15.3061 24.7461 19.7157 23.217 24.4681 23.217C29.2511 23.217 33.6867 24.7659 37.3367 27.3988L34.9966 30.6428C31.9943 28.4771 28.3704 27.217 24.4681 27.217C20.5906 27.217 16.9882 28.4611 13.9972 30.6015L11.6694 27.3486ZM9.48799 27.5578L7.86771 28.6203L6.05726 29.8075L24.5381 41.695L42.9753 29.7924L41.3134 28.6779L39.7041 27.5987L41.8624 24.3803L43.4717 25.4594L47.5792 28.2139C48.1206 28.577 48.4432 29.1881 48.4375 29.8401C48.4318 30.492 48.0986 31.0974 47.5509 31.451L25.5909 45.6278C24.9521 46.0402 24.1312 46.0409 23.4918 45.6296L1.4518 31.4527C0.900017 31.0978 0.565323 30.4877 0.562435 29.8317C0.559547 29.1756 0.888858 28.5626 1.4375 28.2029L5.74271 25.3797L7.36299 24.3172L9.48799 27.5578Z" fill="black"/>
</svg>
