<svg width="48" height="48" viewBox="0 0 48 48" fill="none" xmlns="http://www.w3.org/2000/svg">
<path fill-rule="evenodd" clip-rule="evenodd" d="M8.64644 10.9142L38.3449 40.6127L41.1734 37.7843L39.2345 35.8454C41.7601 32.6825 43.27 28.6728 43.27 24.3104C43.27 18.5662 40.652 13.4334 36.544 10.0402L34.5839 12.9661C37.7605 15.7165 39.77 19.7788 39.77 24.3104C39.77 27.7056 38.642 30.8373 36.7403 33.3513L34.2437 30.8547C35.2874 29.069 35.86 26.9586 35.86 24.753C35.86 21.8399 34.8611 19.0927 33.0971 17.0406L30.4429 19.3222L30.6404 19.5622C31.7321 20.949 32.36 22.7852 32.36 24.753C32.36 26.0005 32.1077 27.1951 31.6448 28.2558L26.34 22.9509V8.25003L17.6965 14.3074L11.4749 8.08582L8.64644 10.9142ZM20.5677 17.1787L22.339 18.9499V15.937L20.5677 17.1787ZM26.34 40.5V34.1685L22.339 30.1675V33.248L14.7109 28.437L8.5 28.437V21.118L13.2895 21.1179L9.29 17.1185L6.053 17.1188C5.1923 17.1188 4.5 17.8141 4.5 18.6719V30.8844C4.5 31.7395 5.1953 32.4375 6.053 32.4375L13.555 32.437L26.34 40.5Z" fill="black"/>
</svg>
