<svg width="48" height="48" viewBox="0 0 48 48" fill="none" xmlns="http://www.w3.org/2000/svg">
<path fill-rule="evenodd" clip-rule="evenodd" d="M14.7113 28.4375L15.6891 29.0541L22.34 33.2484V15.938L15.9817 20.3944L14.9481 21.1187H13.6859H8.5V28.4375H13.5554H14.7113ZM22.34 11.0534L13.6859 17.1187H6.06C5.19844 17.1187 4.5 17.8172 4.5 18.6787V30.8775C4.5 31.7391 5.19844 32.4375 6.06 32.4375H13.5554L22.34 37.9774L26.34 40.5V35.771V13.1346V8.25L22.34 11.0534ZM33.0971 17.0406C34.8258 19.0516 35.86 21.7838 35.86 24.753C35.86 27.7222 34.8258 30.4543 33.0971 32.4654L30.4429 30.1838C31.6057 28.8312 32.36 26.9165 32.36 24.753C32.36 22.5894 31.6057 20.6748 30.4429 19.3222L33.0971 17.0406ZM39.77 24.3104C39.77 19.7788 37.7605 15.7165 34.5839 12.9661L36.544 10.0401C40.652 13.4333 43.27 18.5661 43.27 24.3104C43.27 29.9965 40.7047 35.0835 36.6684 38.4771L34.6207 35.6228C37.776 32.8729 39.77 28.8245 39.77 24.3104Z" fill="black"/>
</svg>
