<svg width="48" height="48" viewBox="0 0 48 48" fill="none" xmlns="http://www.w3.org/2000/svg">
<path fill-rule="evenodd" clip-rule="evenodd" d="M31.3548 10.9481L29.3409 11.6658L29.2519 11.6975L29.0295 11.4416L27.7876 10.0123C26.8647 8.95007 25.4892 8.27097 23.9356 8.27097C22.4466 8.27097 21.1223 8.89431 20.2019 9.88084L18.9216 11.2531L17.0908 10.8403C16.756 10.7648 16.4044 10.7242 16.0389 10.7242C13.9014 10.7242 12.1577 12.1133 11.6003 13.9561H36.4298C36.2037 12.1729 34.6461 10.7242 32.6635 10.7242C32.1972 10.7242 31.7579 10.8044 31.3548 10.9481ZM16.0389 7.45323C12.1157 7.45323 8.86076 10.2677 8.24643 13.9561H5.5V18.0439H8.40197L9.79305 39.7206C9.91139 41.5648 11.4417 43 13.2896 43H34.934C36.8004 43 38.3392 41.5369 38.4333 39.6728L39.5247 18.0439H42.5V13.9561H39.7145C39.4799 10.326 36.4127 7.45323 32.6635 7.45323C32.0998 7.45323 31.5516 7.51816 31.0261 7.64083C30.7637 7.70209 30.5069 7.77774 30.2568 7.8669C30.0821 7.66589 29.8977 7.4733 29.7043 7.28985C28.2094 5.87201 26.176 5 23.9356 5C21.8278 5 19.9033 5.77175 18.4381 7.04368C18.2181 7.23463 18.0085 7.43685 17.8102 7.64943C17.5284 7.58591 17.2409 7.53721 16.9486 7.50422C16.6501 7.47054 16.3465 7.45323 16.0389 7.45323ZM12.4716 18.0839L12.4381 18.0439H19.7129L19.6684 18.0839H20.3135H21.306H22.2836H23.9356H27.1343H27.2451H29.8861H29.9041H32.6635H35.5176L34.4621 39H13.755L12.4128 18.0839H12.4716ZM32.6635 18.0839C32.4712 18.0839 32.2829 18.0702 32.0994 18.0439H33.2287C33.0448 18.0702 32.8562 18.0839 32.6635 18.0839ZM23.9356 18.0839C23.7145 18.0839 23.4977 18.0702 23.2859 18.0439H24.585C24.3728 18.0703 24.1561 18.0839 23.9356 18.0839ZM21 24.5743C21 23.8838 21.7552 23.459 22.3453 23.8177L28.7619 27.7177C29.3277 28.0616 29.3297 28.8821 28.7656 29.2287L22.3489 33.1712C21.759 33.5337 21 33.1092 21 32.4168V24.5743Z" fill="black"/>
</svg>
