<svg width="48" height="48" viewBox="0 0 48 48" fill="none" xmlns="http://www.w3.org/2000/svg">
<path fill-rule="evenodd" clip-rule="evenodd" d="M39.1425 24.0103C39.1425 23.401 39.1072 22.8 39.0386 22.2091C40.8414 23.6212 42 25.8181 42 28.2857C42 32.4781 38.6509 35.901 34.4693 35.9979L34.246 36.0002L33.4192 36.0002C36.9106 33.1754 39.1425 28.857 39.1425 24.0103ZM35.7139 24.0103C35.7139 22.7833 35.5301 21.5993 35.1885 20.4844C34.8218 19.2876 34.2734 18.1705 33.5755 17.1651C31.4557 14.1119 27.9569 12.0901 23.9819 12.0029L23.7139 12C19.7019 12 16.056 13.9882 13.8552 17.1584C19.0165 17.4401 23.1428 21.5271 23.1428 26.5714C23.1428 29.0265 22.1561 31.3311 20.4329 33.0654L20.2226 33.2707L17.8646 30.7818C19.046 29.6625 19.7143 28.1658 19.7143 26.5714C19.7143 23.3449 16.9694 20.68 13.4991 20.5747L13.2857 20.5714H12.1303L12.1164 20.604L10.8081 21.1366C7.92485 22.3104 5.99998 25.1192 5.99998 28.2857C5.99998 32.4701 9.33154 35.8764 13.4868 35.9967L13.7143 36H23.1428V36H24.1603L24.6073 35.9675C25.2795 35.9184 25.9356 35.8142 26.5714 35.6596V35.6596C31.7548 34.3992 35.5859 29.7848 35.7108 24.2874L35.7139 24.0103ZM23.7139 8.57144C29.992 8.57144 35.3943 12.3238 37.8033 17.7095C42.2336 19.1822 45.4286 23.3609 45.4286 28.2857C45.4286 34.3518 40.5812 39.2858 34.5487 39.4255L34.2857 39.4286H24.8571V39.4286H13.7143C7.56024 39.4286 2.57141 34.4398 2.57141 28.2857C2.57141 23.6171 5.44254 19.6191 9.5154 17.9611C11.8663 12.4409 17.3385 8.57144 23.7139 8.57144Z" fill="black"/>
<path d="M39.0386 22.2091L39.1927 22.0123L38.7212 21.6429L38.7903 22.2379L39.0386 22.2091ZM34.4693 35.9979L34.472 36.2479L34.4751 36.2478L34.4693 35.9979ZM34.246 36.0002L34.246 36.2502L34.2487 36.2502L34.246 36.0002ZM33.4192 36.0002L33.262 35.8058L32.7128 36.2502L33.4192 36.2502L33.4192 36.0002ZM35.1885 20.4844L34.9495 20.5576L35.1885 20.4844ZM35.7139 24.0103L35.9639 24.0131V24.0103H35.7139ZM33.5755 17.1651L33.7808 17.0226L33.5755 17.1651ZM23.9819 12.0029L23.9873 11.753L23.9846 11.753L23.9819 12.0029ZM23.7139 12L23.7166 11.75H23.7139V12ZM13.8552 17.1584L13.6498 17.0158L13.3945 17.3836L13.8416 17.408L13.8552 17.1584ZM20.4329 33.0654L20.6075 33.2443L20.6102 33.2416L20.4329 33.0654ZM20.2226 33.2707L20.0411 33.4427L20.2156 33.6269L20.3972 33.4496L20.2226 33.2707ZM17.8646 30.7818L17.6926 30.6003L17.5112 30.7722L17.6831 30.9537L17.8646 30.7818ZM13.4991 20.5747L13.5066 20.3247L13.5028 20.3247L13.4991 20.5747ZM13.2857 20.5714L13.2895 20.3214H13.2857V20.5714ZM12.1303 20.5714V20.3214H11.965L11.9003 20.4735L12.1303 20.5714ZM12.1164 20.604L12.2106 20.8356L12.306 20.7967L12.3464 20.702L12.1164 20.604ZM10.8081 21.1366L10.7139 20.9051L10.8081 21.1366ZM13.4868 35.9967L13.4796 36.2466L13.4832 36.2467L13.4868 35.9967ZM13.7143 36L13.7107 36.25H13.7143V36ZM23.1428 36V36.25H23.3928V36H23.1428ZM23.1428 36V35.75H22.8928V36H23.1428ZM24.1603 36V36.25H24.1693L24.1784 36.2493L24.1603 36ZM24.6073 35.9675L24.6254 36.2168L24.6255 36.2168L24.6073 35.9675ZM26.5714 35.6596H26.8214V35.3415L26.5123 35.4167L26.5714 35.6596ZM26.5714 35.6596H26.3214V35.9777L26.6305 35.9025L26.5714 35.6596ZM35.7108 24.2874L35.9607 24.293L35.9607 24.2902L35.7108 24.2874ZM37.8033 17.7095L37.5751 17.8115L37.62 17.912L37.7244 17.9467L37.8033 17.7095ZM34.5487 39.4255L34.5516 39.6755L34.5545 39.6755L34.5487 39.4255ZM34.2857 39.4286V39.6786L34.2886 39.6786L34.2857 39.4286ZM24.8571 39.4286V39.1786H24.6071V39.4286H24.8571ZM24.8571 39.4286V39.6786H25.1071V39.4286H24.8571ZM9.5154 17.9611L9.60966 18.1926L9.70506 18.1538L9.74541 18.059L9.5154 17.9611ZM38.7903 22.2379C38.8578 22.8192 38.8925 23.4107 38.8925 24.0103H39.3925C39.3925 23.3913 39.3566 22.7807 39.2869 22.1802L38.7903 22.2379ZM42.25 28.2857C42.25 25.738 41.0535 23.4697 39.1927 22.0123L38.8844 22.4059C40.6294 23.7726 41.75 25.8982 41.75 28.2857H42.25ZM34.4751 36.2478C38.7924 36.1478 42.25 32.6139 42.25 28.2857H41.75C41.75 32.3423 38.5093 35.6542 34.4635 35.7479L34.4751 36.2478ZM34.2487 36.2502L34.472 36.2479L34.4667 35.7479L34.2434 35.7502L34.2487 36.2502ZM33.4192 36.2502L34.246 36.2502L34.246 35.7502L33.4192 35.7502L33.4192 36.2502ZM38.8925 24.0103C38.8925 28.7784 36.6972 33.0265 33.262 35.8058L33.5765 36.1946C37.1241 33.3243 39.3925 28.9356 39.3925 24.0103H38.8925ZM34.9495 20.5576C35.2839 21.6491 35.4639 22.8084 35.4639 24.0103H35.9639C35.9639 22.7582 35.7763 21.5495 35.4275 20.4112L34.9495 20.5576ZM33.3701 17.3077C34.0536 18.2922 34.5905 19.386 34.9495 20.5576L35.4275 20.4112C35.0532 19.1893 34.4933 18.0488 33.7808 17.0226L33.3701 17.3077ZM23.9764 12.2529C27.8681 12.3382 31.2941 14.3174 33.3701 17.3077L33.7808 17.0226C31.6174 13.9064 28.0456 11.842 23.9873 11.753L23.9764 12.2529ZM23.7112 12.25L23.9791 12.2529L23.9846 11.753L23.7166 11.75L23.7112 12.25ZM14.0606 17.3009C16.2157 14.1966 19.7856 12.25 23.7139 12.25V11.75C19.6182 11.75 15.8964 13.7798 13.6498 17.0158L14.0606 17.3009ZM13.8416 17.408C18.8814 17.6831 22.8928 21.6707 22.8928 26.5714H23.3928C23.3928 21.3834 19.1515 17.1971 13.8688 16.9087L13.8416 17.408ZM22.8928 26.5714C22.8928 28.9581 21.9339 31.2001 20.2555 32.8892L20.6102 33.2416C22.3782 31.4622 23.3928 29.0949 23.3928 26.5714H22.8928ZM20.2582 32.8865L20.0479 33.0919L20.3972 33.4496L20.6075 33.2443L20.2582 32.8865ZM20.404 33.0988L18.0461 30.6098L17.6831 30.9537L20.0411 33.4427L20.404 33.0988ZM18.0365 30.9632C19.2653 29.7991 19.9643 28.2377 19.9643 26.5714H19.4643C19.4643 28.0938 18.8267 29.5259 17.6926 30.6003L18.0365 30.9632ZM19.9643 26.5714C19.9643 23.1951 17.0969 20.4337 13.5066 20.3248L13.4915 20.8245C16.8419 20.9262 19.4643 23.4947 19.4643 26.5714H19.9643ZM13.5028 20.3247L13.2895 20.3215L13.2819 20.8214L13.4953 20.8246L13.5028 20.3247ZM13.2857 20.3214H12.1303V20.8214H13.2857V20.3214ZM12.3464 20.702L12.3603 20.6694L11.9003 20.4735L11.8864 20.5061L12.3464 20.702ZM10.9024 21.3681L12.2106 20.8356L12.0221 20.3725L10.7139 20.9051L10.9024 21.3681ZM6.24998 28.2857C6.24998 25.2219 8.11237 22.504 10.9024 21.3681L10.7139 20.9051C7.73734 22.1168 5.74998 25.0166 5.74998 28.2857H6.24998ZM13.4941 35.7468C9.47358 35.6304 6.24998 32.3345 6.24998 28.2857H5.74998C5.74998 32.6058 9.1895 36.1224 13.4796 36.2466L13.4941 35.7468ZM13.7179 35.75L13.4904 35.7468L13.4832 36.2467L13.7107 36.25L13.7179 35.75ZM23.1428 35.75H13.7143V36.25H23.1428V35.75ZM22.8928 36V36H23.3928V36H22.8928ZM24.1603 35.75H23.1428V36.25H24.1603V35.75ZM24.5892 35.7181L24.1421 35.7507L24.1784 36.2493L24.6254 36.2168L24.5892 35.7181ZM26.5123 35.4167C25.8899 35.5681 25.2474 35.67 24.5891 35.7182L24.6255 36.2168C25.3115 36.1667 25.9813 36.0604 26.6305 35.9025L26.5123 35.4167ZM26.8214 35.6596V35.6596H26.3214V35.6596H26.8214ZM35.4608 24.2817C35.3386 29.6642 31.5875 34.1826 26.5123 35.4167L26.6305 35.9025C31.9222 34.6158 35.8332 29.9054 35.9607 24.293L35.4608 24.2817ZM35.4639 24.0074L35.4608 24.2845L35.9607 24.2902L35.9639 24.0131L35.4639 24.0074ZM38.0315 17.6074C35.5838 12.1351 30.0942 8.32144 23.7139 8.32144V8.82144C29.8898 8.82144 35.2049 12.5125 37.5751 17.8115L38.0315 17.6074ZM45.6786 28.2857C45.6786 23.25 42.4116 18.978 37.8822 17.4722L37.7244 17.9467C42.0556 19.3865 45.1786 23.4717 45.1786 28.2857H45.6786ZM34.5545 39.6755C40.7225 39.5326 45.6786 34.488 45.6786 28.2857H45.1786C45.1786 34.2157 40.44 39.039 34.5429 39.1756L34.5545 39.6755ZM34.2886 39.6786L34.5516 39.6755L34.5458 39.1755L34.2828 39.1786L34.2886 39.6786ZM24.8571 39.6786H34.2857V39.1786H24.8571V39.6786ZM25.1071 39.4286V39.4286H24.6071V39.4286H25.1071ZM13.7143 39.6786H24.8571V39.1786H13.7143V39.6786ZM2.32141 28.2857C2.32141 34.5778 7.42217 39.6786 13.7143 39.6786V39.1786C7.69831 39.1786 2.82141 34.3017 2.82141 28.2857H2.32141ZM9.42114 17.7295C5.25736 19.4246 2.32141 23.512 2.32141 28.2857H2.82141C2.82141 23.7223 5.62771 19.8137 9.60966 18.1926L9.42114 17.7295ZM23.7139 8.32144C17.2347 8.32144 11.6741 12.2541 9.28539 17.8631L9.74541 18.059C12.0585 12.6277 17.4423 8.82144 23.7139 8.82144V8.32144Z" fill="black"/>
</svg>
